<svg width="1024" height="665" viewBox="0 0 1024 665" fill="none" xmlns="http://www.w3.org/2000/svg">
<rect width="1024" height="665" fill="white"/>
<path d="M4.25259 75.407V14.3915C4.25259 10.4747 5.36943 7.09692 7.60311 4.25815C9.8368 1.41938 12.5287 0 15.6787 0C17.6833 0 19.5447 0.628841 21.2629 1.88652C23.0098 3.1442 24.3987 4.83309 25.4296 6.95318L43.0414 43.6056C44.0723 45.7257 45.3323 48.8879 46.8214 53.0921H47.251V9.64822C47.251 6.98912 47.9956 4.72529 49.4847 2.85673C51.0024 0.952245 52.8352 0 54.983 0C57.0735 0 58.8633 0.952245 60.3524 2.85673C61.8702 4.72529 62.629 6.98912 62.629 9.64822V71.6879C62.629 75.3891 61.5838 78.5512 59.4933 81.1744C57.4028 83.7976 54.8827 85.1091 51.9331 85.1091C49.9858 85.1091 48.196 84.5342 46.5637 83.3843C44.9314 82.1985 43.6427 80.6174 42.6977 78.6411L24.1839 40.4255C22.3512 36.6524 21.0338 33.4184 20.232 30.7234H19.8025V75.407C19.8025 78.0661 19.0436 80.3479 17.5258 82.2524C16.0081 84.1569 14.1896 85.1091 12.0705 85.1091C9.92271 85.1091 8.07562 84.1569 6.52923 82.2524C5.01147 80.3479 4.25259 78.0661 4.25259 75.407Z" fill="#F9CEBA" fill-opacity="0.25"/>
<path d="M80.3009 74.868V10.295C80.3009 7.24066 80.9309 4.92293 82.1909 3.34184C83.4796 1.72482 85.341 0.916311 87.7752 0.916311H120.121C121.982 0.916311 123.571 1.76075 124.889 3.44964C126.235 5.13853 126.908 7.16879 126.908 9.54042C126.908 11.8402 126.235 13.8345 124.889 15.5234C123.571 17.1763 121.982 18.0028 120.121 18.0028H97.0106V34.2269H116.083C117.887 34.2269 119.433 35.0534 120.722 36.7063C122.039 38.3234 122.698 40.2638 122.698 42.5276C122.698 44.8274 122.039 46.8037 120.722 48.4567C119.433 50.1096 117.887 50.9361 116.083 50.9361H97.0106V67.1602H121.882C123.743 67.1602 125.333 68.0047 126.65 69.6936C127.996 71.3465 128.669 73.3229 128.669 75.6226C128.669 77.9942 127.996 80.0245 126.65 81.7134C125.333 83.4023 123.743 84.2467 121.882 84.2467H87.7752C85.341 84.2467 83.4796 83.4562 82.1909 81.8751C80.9309 80.2581 80.3009 77.9224 80.3009 74.868Z" fill="#F9CEBA" fill-opacity="0.25"/>
<path d="M139.167 10.295C139.167 7.45626 139.955 5.03073 141.53 3.01844C143.105 1.00615 145.009 0 147.243 0C149.219 0 150.951 0.772576 152.44 2.31773C153.929 3.82695 154.874 5.7494 155.275 8.0851L164.124 60.746L174.863 8.6241C175.379 6.14467 176.452 4.09645 178.085 2.47943C179.746 0.826477 181.636 0 183.755 0C185.845 0 187.707 0.826477 189.339 2.47943C190.971 4.13238 192.045 6.18061 192.561 8.6241L203.214 60.3148L212.191 7.54609C212.535 5.426 213.408 3.64728 214.812 2.20993C216.215 0.736642 217.804 0 219.58 0C221.67 0 223.446 0.934278 224.906 2.80283C226.395 4.63546 227.14 6.88132 227.14 9.54042C227.14 10.0435 227.083 10.7262 226.968 11.5886L215.971 72.7659C215.341 76.3233 213.867 79.2699 211.547 81.6056C209.227 83.9413 206.564 85.1091 203.557 85.1091C200.636 85.1091 198.03 83.9952 195.739 81.7673C193.448 79.5394 191.945 76.6827 191.229 73.1971L182.982 32.2326L174.691 73.1971C173.975 76.6827 172.486 79.5394 170.224 81.7673C167.962 83.9952 165.37 85.1091 162.449 85.1091C159.499 85.1091 156.879 83.9413 154.588 81.6056C152.326 79.2699 150.88 76.3233 150.25 72.7659L139.339 12.505C139.224 11.4988 139.167 10.7622 139.167 10.295Z" fill="#F9CEBA" fill-opacity="0.25"/>
<path d="M0 191.288C0 190.426 0.157503 189.402 0.47251 188.216L17.1822 127.47C18.1272 124.02 19.8025 121.217 22.208 119.061C24.6135 116.869 27.334 115.773 30.3695 115.773C33.3764 115.773 36.0683 116.869 38.4451 119.061C40.8506 121.217 42.5259 124.02 43.4709 127.47L60.0088 187.569C60.2951 188.755 60.4383 189.851 60.4383 190.857C60.4383 193.588 59.6508 195.942 58.0758 197.918C56.5007 199.894 54.625 200.882 52.4486 200.882C50.6731 200.882 49.0838 200.236 47.6805 198.942C46.306 197.648 45.3466 195.978 44.8025 193.929L41.8816 182.341H17.9554L15.0774 194.145C14.5905 196.157 13.6598 197.792 12.2853 199.05C10.9393 200.272 9.39292 200.882 7.64607 200.882C5.55557 200.882 3.75144 199.948 2.23368 198.08C0.744561 196.211 0 193.947 0 191.288ZM22.0791 166.009H37.7578L33.5482 149.138C32.4886 144.934 31.4577 140.262 30.4554 135.124H29.3815C28.2647 140.801 27.2481 145.473 26.3317 149.138L22.0791 166.009Z" fill="#F9CEBA" fill-opacity="0.25"/>
<path d="M73.8576 190.318V126.068C73.8576 123.014 74.4876 120.696 75.7476 119.115C77.0363 117.498 78.8977 116.69 81.3318 116.69H102.853C110.499 116.69 116.498 118.918 120.851 123.373C125.232 127.829 127.423 134.1 127.423 142.185C127.423 147.575 126.392 152.282 124.33 156.307C122.268 160.295 119.362 163.457 115.61 165.793V166.009L123.901 186.006C124.531 187.407 124.846 188.988 124.846 190.749C124.846 193.552 124.044 195.942 122.44 197.918C120.865 199.894 118.946 200.882 116.684 200.882C115.138 200.882 113.706 200.379 112.389 199.373C111.1 198.367 110.126 197.038 109.468 195.385L99.6309 171.561H90.7391V190.318C90.7391 193.265 89.9086 195.762 88.2477 197.81C86.6154 199.858 84.6251 200.882 82.2769 200.882C79.9286 200.882 77.9384 199.858 76.3061 197.81C74.6737 195.762 73.8576 193.265 73.8576 190.318ZM90.7391 154.744H99.2443C100.791 154.744 102.165 154.582 103.368 154.258C104.571 153.935 105.702 153.396 106.761 152.641C107.821 151.851 108.637 150.701 109.21 149.192C109.783 147.647 110.069 145.778 110.069 143.586C110.069 141.322 109.783 139.418 109.21 137.873C108.637 136.327 107.821 135.178 106.761 134.423C105.702 133.632 104.571 133.075 103.368 132.752C102.194 132.429 100.819 132.267 99.2443 132.267H90.7391V154.744Z" fill="#F9CEBA" fill-opacity="0.25"/>
<path d="M141.83 190.318V126.068C141.83 123.014 142.46 120.696 143.72 119.115C145.009 117.498 146.87 116.69 149.305 116.69H170.825C178.471 116.69 184.471 118.918 188.824 123.373C193.205 127.829 195.396 134.1 195.396 142.185C195.396 147.575 194.365 152.282 192.303 156.307C190.241 160.295 187.334 163.457 183.583 165.793V166.009L191.873 186.006C192.503 187.407 192.818 188.988 192.818 190.749C192.818 193.552 192.017 195.942 190.413 197.918C188.838 199.894 186.919 200.882 184.657 200.882C183.11 200.882 181.679 200.379 180.361 199.373C179.073 198.367 178.099 197.038 177.44 195.385L167.604 171.561H158.712V190.318C158.712 193.265 157.881 195.762 156.22 197.81C154.588 199.858 152.598 200.882 150.25 200.882C147.901 200.882 145.911 199.858 144.279 197.81C142.646 195.762 141.83 193.265 141.83 190.318ZM158.712 154.744H167.217C168.763 154.744 170.138 154.582 171.341 154.258C172.543 153.935 173.675 153.396 174.734 152.641C175.794 151.851 176.61 150.701 177.183 149.192C177.755 147.647 178.042 145.778 178.042 143.586C178.042 141.322 177.755 139.418 177.183 137.873C176.61 136.327 175.794 135.178 174.734 134.423C173.675 133.632 172.543 133.075 171.341 132.752C170.167 132.429 168.792 132.267 167.217 132.267H158.712V154.744Z" fill="#F9CEBA" fill-opacity="0.25"/>
<path d="M209.803 190.318V126.392C209.803 123.445 210.619 120.948 212.251 118.9C213.884 116.815 215.874 115.773 218.222 115.773C220.57 115.773 222.561 116.815 224.193 118.9C225.854 120.948 226.684 123.445 226.684 126.392V190.318C226.684 193.265 225.854 195.762 224.193 197.81C222.561 199.858 220.57 200.882 218.222 200.882C215.874 200.882 213.884 199.858 212.251 197.81C210.619 195.762 209.803 193.265 209.803 190.318Z" fill="#F9CEBA" fill-opacity="0.25"/>
<path d="M241.435 126.068C241.435 123.266 242.252 120.858 243.884 118.846C245.516 116.797 247.463 115.773 249.726 115.773C251.559 115.773 253.191 116.474 254.623 117.875C256.083 119.241 257.057 120.984 257.544 123.104L268.025 166.44C268.712 169.171 269.385 172.459 270.044 176.304C270.101 176.627 270.201 177.274 270.344 178.244C270.516 179.178 270.645 179.879 270.731 180.346H271.075C271.132 180.023 271.375 178.675 271.805 176.304C272.464 172.459 273.137 169.171 273.824 166.44L284.348 122.619C284.835 120.606 285.751 118.971 287.097 117.714C288.443 116.42 289.961 115.773 291.65 115.773C293.798 115.773 295.631 116.726 297.149 118.63C298.666 120.499 299.425 122.762 299.425 125.422C299.425 126.428 299.268 127.452 298.953 128.494L282.716 189.779C281.885 193.049 280.324 195.726 278.033 197.81C275.742 199.858 273.165 200.882 270.301 200.882C267.495 200.882 264.961 199.858 262.698 197.81C260.436 195.726 258.861 193.049 257.973 189.779L241.865 129.356C241.579 128.171 241.435 127.075 241.435 126.068Z" fill="#F9CEBA" fill-opacity="0.25"/>
<path d="M302.75 191.288C302.75 190.426 302.907 189.402 303.223 188.216L319.932 127.47C320.877 124.02 322.552 121.217 324.958 119.061C327.363 116.869 330.084 115.773 333.119 115.773C336.126 115.773 338.818 116.869 341.195 119.061C343.601 121.217 345.276 124.02 346.221 127.47L362.759 187.569C363.045 188.755 363.188 189.851 363.188 190.857C363.188 193.588 362.401 195.942 360.826 197.918C359.251 199.894 357.375 200.882 355.199 200.882C353.423 200.882 351.834 200.236 350.431 198.942C349.056 197.648 348.097 195.978 347.553 193.929L344.632 182.341H320.705L317.827 194.145C317.341 196.157 316.41 197.792 315.035 199.05C313.689 200.272 312.143 200.882 310.396 200.882C308.306 200.882 306.501 199.948 304.984 198.08C303.495 196.211 302.75 193.947 302.75 191.288ZM324.829 166.009H340.508L336.298 149.138C335.239 144.934 334.208 140.262 333.205 135.124H332.132C331.015 140.801 329.998 145.473 329.082 149.138L324.829 166.009Z" fill="#F9CEBA" fill-opacity="0.25"/>
<path d="M376.608 190.641V126.392C376.608 123.445 377.424 120.948 379.056 118.9C380.688 116.815 382.679 115.773 385.027 115.773C387.375 115.773 389.365 116.815 390.998 118.9C392.659 120.948 393.489 123.445 393.489 126.392V182.664H416.685C418.575 182.664 420.193 183.509 421.539 185.197C422.885 186.886 423.558 188.917 423.558 191.288C423.558 193.696 422.885 195.762 421.539 197.487C420.193 199.176 418.575 200.02 416.685 200.02H384.082C381.648 200.02 379.786 199.23 378.498 197.648C377.238 196.031 376.608 193.696 376.608 190.641Z" fill="#F9CEBA" fill-opacity="0.25"/>
<path d="M434.829 140.298C434.829 132.86 437.178 126.733 441.874 121.918C446.599 117.103 453.071 114.695 461.29 114.695C463.896 114.695 466.588 115.037 469.366 115.719C472.172 116.402 474.85 117.408 477.398 118.738C479.976 120.067 482.08 121.882 483.713 124.182C485.374 126.482 486.204 129.051 486.204 131.89C486.204 134.513 485.46 136.705 483.97 138.466C482.481 140.19 480.677 141.053 478.558 141.053C477.212 141.053 475.995 140.711 474.907 140.029C473.819 139.346 472.859 138.519 472.029 137.549C471.198 136.543 470.325 135.555 469.408 134.585C468.492 133.579 467.304 132.734 465.843 132.051C464.411 131.369 462.75 131.027 460.86 131.027C458.083 131.027 455.878 131.728 454.245 133.129C452.613 134.495 451.797 136.184 451.797 138.196C451.797 140.424 452.398 142.257 453.601 143.694C454.804 145.095 456.994 146.209 460.173 147.036L470.869 149.892C477.427 151.689 482.209 154.654 485.216 158.786C488.223 162.918 489.726 168.201 489.726 174.633C489.726 177.579 489.426 180.346 488.824 182.934C488.252 185.485 487.264 187.946 485.86 190.318C484.486 192.69 482.753 194.72 480.663 196.409C478.572 198.098 475.923 199.427 472.716 200.397C469.537 201.404 465.943 201.907 461.934 201.907C458.469 201.907 455.133 201.583 451.926 200.936C448.747 200.29 445.783 199.301 443.034 197.972C440.313 196.642 438.123 194.81 436.462 192.474C434.829 190.102 434.013 187.389 434.013 184.335C434.013 181.64 434.786 179.448 436.333 177.759C437.908 176.034 439.812 175.172 442.046 175.172C443.392 175.172 444.652 175.477 445.826 176.088C447 176.699 448.06 177.436 449.005 178.298C449.95 179.161 450.938 180.023 451.969 180.885C453.028 181.748 454.345 182.484 455.921 183.095C457.496 183.706 459.257 184.012 461.204 184.012C468.421 184.012 472.029 181.37 472.029 176.088C472.029 174.004 471.442 172.315 470.268 171.022C469.122 169.728 467.046 168.686 464.039 167.895L453.214 165.039C447 163.386 442.375 160.547 439.34 156.522C436.333 152.498 434.829 147.09 434.829 140.298Z" fill="#F9CEBA" fill-opacity="0.25"/>
<path d="M4.25259 306.954V245.938C4.25259 242.021 5.36943 238.644 7.60311 235.805C9.8368 232.966 12.5287 231.547 15.6787 231.547C17.6833 231.547 19.5447 232.176 21.2629 233.433C23.0098 234.691 24.3987 236.38 25.4296 238.5L43.0414 275.152C44.0723 277.272 45.3323 280.435 46.8214 284.639H47.251V241.195C47.251 238.536 47.9956 236.272 49.4847 234.403C51.0024 232.499 52.8352 231.547 54.983 231.547C57.0735 231.547 58.8633 232.499 60.3524 234.403C61.8702 236.272 62.629 238.536 62.629 241.195V303.235C62.629 306.936 61.5838 310.098 59.4933 312.721C57.4028 315.344 54.8827 316.656 51.9331 316.656C49.9858 316.656 48.196 316.081 46.5637 314.931C44.9314 313.745 43.6427 312.164 42.6977 310.188L24.1839 271.972C22.3512 268.199 21.0338 264.965 20.232 262.27H19.8025V306.954C19.8025 309.613 19.0436 311.895 17.5258 313.799C16.0081 315.704 14.1896 316.656 12.0705 316.656C9.92271 316.656 8.07562 315.704 6.52923 313.799C5.01147 311.895 4.25259 309.613 4.25259 306.954Z" fill="#F9CEBA" fill-opacity="0.25"/>
<path d="M80.3009 306.415V241.842C80.3009 238.787 80.9309 236.47 82.1909 234.889C83.4796 233.272 85.341 232.463 87.7752 232.463H120.121C121.982 232.463 123.571 233.307 124.889 234.996C126.235 236.685 126.908 238.715 126.908 241.087C126.908 243.387 126.235 245.381 124.889 247.07C123.571 248.723 121.982 249.55 120.121 249.55H97.0106V265.774H116.083C117.887 265.774 119.433 266.6 120.722 268.253C122.039 269.87 122.698 271.811 122.698 274.074C122.698 276.374 122.039 278.35 120.722 280.003C119.433 281.656 117.887 282.483 116.083 282.483H97.0106V298.707H121.882C123.743 298.707 125.333 299.551 126.65 301.24C127.996 302.893 128.669 304.87 128.669 307.169C128.669 309.541 127.996 311.571 126.65 313.26C125.333 314.949 123.743 315.793 121.882 315.793H87.7752C85.341 315.793 83.4796 315.003 82.1909 313.422C80.9309 311.805 80.3009 309.469 80.3009 306.415Z" fill="#F9CEBA" fill-opacity="0.25"/>
<path d="M139.167 241.842C139.167 239.003 139.955 236.577 141.53 234.565C143.105 232.553 145.009 231.547 147.243 231.547C149.219 231.547 150.951 232.319 152.44 233.864C153.929 235.374 154.874 237.296 155.275 239.632L164.124 292.293L174.863 240.171C175.379 237.691 176.452 235.643 178.085 234.026C179.746 232.373 181.636 231.547 183.755 231.547C185.845 231.547 187.707 232.373 189.339 234.026C190.971 235.679 192.045 237.727 192.561 240.171L203.214 291.862L212.191 239.093C212.535 236.973 213.408 235.194 214.812 233.757C216.215 232.283 217.804 231.547 219.58 231.547C221.67 231.547 223.446 232.481 224.906 234.35C226.395 236.182 227.14 238.428 227.14 241.087C227.14 241.59 227.083 242.273 226.968 243.135L215.971 304.313C215.341 307.87 213.867 310.817 211.547 313.152C209.227 315.488 206.564 316.656 203.557 316.656C200.636 316.656 198.03 315.542 195.739 313.314C193.448 311.086 191.945 308.229 191.229 304.744L182.982 263.779L174.691 304.744C173.975 308.229 172.486 311.086 170.224 313.314C167.962 315.542 165.37 316.656 162.449 316.656C159.499 316.656 156.879 315.488 154.588 313.152C152.326 310.817 150.88 307.87 150.25 304.313L139.339 244.052C139.224 243.046 139.167 242.309 139.167 241.842Z" fill="#F9CEBA" fill-opacity="0.25"/>
<path d="M0 422.835C0 421.972 0.157503 420.948 0.47251 419.763L17.1822 359.016C18.1272 355.567 19.8025 352.764 22.208 350.608C24.6135 348.416 27.334 347.32 30.3695 347.32C33.3764 347.32 36.0683 348.416 38.4451 350.608C40.8506 352.764 42.5259 355.567 43.4709 359.016L60.0088 419.116C60.2951 420.302 60.4383 421.398 60.4383 422.404C60.4383 425.135 59.6508 427.488 58.0758 429.465C56.5007 431.441 54.625 432.429 52.4486 432.429C50.6731 432.429 49.0838 431.782 47.6805 430.489C46.306 429.195 45.3466 427.524 44.8025 425.476L41.8816 413.887H17.9554L15.0774 425.692C14.5905 427.704 13.6598 429.339 12.2853 430.597C10.9393 431.818 9.39292 432.429 7.64607 432.429C5.55557 432.429 3.75144 431.495 2.23368 429.626C0.744561 427.758 0 425.494 0 422.835ZM22.0791 397.555H37.7578L33.5482 380.685C32.4886 376.48 31.4577 371.809 30.4554 366.67H29.3815C28.2647 372.348 27.2481 377.019 26.3317 380.685L22.0791 397.555Z" fill="#F9CEBA" fill-opacity="0.25"/>
<path d="M73.8576 421.865V357.615C73.8576 354.561 74.4876 352.243 75.7476 350.662C77.0363 349.045 78.8977 348.236 81.3318 348.236H102.853C110.499 348.236 116.498 350.464 120.851 354.92C125.232 359.376 127.423 365.646 127.423 373.731C127.423 379.121 126.392 383.829 124.33 387.853C122.268 391.842 119.362 395.004 115.61 397.34V397.555L123.901 417.553C124.531 418.954 124.846 420.535 124.846 422.296C124.846 425.099 124.044 427.488 122.44 429.465C120.865 431.441 118.946 432.429 116.684 432.429C115.138 432.429 113.706 431.926 112.389 430.92C111.1 429.914 110.126 428.584 109.468 426.931L99.6309 403.107H90.7391V421.865C90.7391 424.811 89.9086 427.309 88.2477 429.357C86.6154 431.405 84.6251 432.429 82.2769 432.429C79.9286 432.429 77.9384 431.405 76.3061 429.357C74.6737 427.309 73.8576 424.811 73.8576 421.865ZM90.7391 386.29H99.2443C100.791 386.29 102.165 386.129 103.368 385.805C104.571 385.482 105.702 384.943 106.761 384.188C107.821 383.398 108.637 382.248 109.21 380.738C109.783 379.193 110.069 377.325 110.069 375.133C110.069 372.869 109.783 370.964 109.21 369.419C108.637 367.874 107.821 366.724 106.761 365.97C105.702 365.179 104.571 364.622 103.368 364.299C102.194 363.975 100.819 363.814 99.2443 363.814H90.7391V386.29Z" fill="#F9CEBA" fill-opacity="0.25"/>
<path d="M141.83 421.865V357.615C141.83 354.561 142.46 352.243 143.72 350.662C145.009 349.045 146.87 348.236 149.305 348.236H170.825C178.471 348.236 184.471 350.464 188.824 354.92C193.205 359.376 195.396 365.646 195.396 373.731C195.396 379.121 194.365 383.829 192.303 387.853C190.241 391.842 187.334 395.004 183.583 397.34V397.555L191.873 417.553C192.503 418.954 192.818 420.535 192.818 422.296C192.818 425.099 192.017 427.488 190.413 429.465C188.838 431.441 186.919 432.429 184.657 432.429C183.11 432.429 181.679 431.926 180.361 430.92C179.073 429.914 178.099 428.584 177.44 426.931L167.604 403.107H158.712V421.865C158.712 424.811 157.881 427.309 156.22 429.357C154.588 431.405 152.598 432.429 150.25 432.429C147.901 432.429 145.911 431.405 144.279 429.357C142.646 427.309 141.83 424.811 141.83 421.865ZM158.712 386.29H167.217C168.763 386.29 170.138 386.129 171.341 385.805C172.543 385.482 173.675 384.943 174.734 384.188C175.794 383.398 176.61 382.248 177.183 380.738C177.755 379.193 178.042 377.325 178.042 375.133C178.042 372.869 177.755 370.964 177.183 369.419C176.61 367.874 175.794 366.724 174.734 365.97C173.675 365.179 172.543 364.622 171.341 364.299C170.167 363.975 168.792 363.814 167.217 363.814H158.712V386.29Z" fill="#F9CEBA" fill-opacity="0.25"/>
<path d="M209.803 421.865V357.938C209.803 354.992 210.619 352.495 212.251 350.446C213.884 348.362 215.874 347.32 218.222 347.32C220.57 347.32 222.561 348.362 224.193 350.446C225.854 352.495 226.684 354.992 226.684 357.938V421.865C226.684 424.811 225.854 427.309 224.193 429.357C222.561 431.405 220.57 432.429 218.222 432.429C215.874 432.429 213.884 431.405 212.251 429.357C210.619 427.309 209.803 424.811 209.803 421.865Z" fill="#F9CEBA" fill-opacity="0.25"/>
<path d="M241.435 357.615C241.435 354.812 242.252 352.405 243.884 350.392C245.516 348.344 247.463 347.32 249.726 347.32C251.559 347.32 253.191 348.021 254.623 349.422C256.083 350.788 257.057 352.53 257.544 354.651L268.025 397.987C268.712 400.718 269.385 404.006 270.044 407.85C270.101 408.174 270.201 408.821 270.344 409.791C270.516 410.725 270.645 411.426 270.731 411.893H271.075C271.132 411.57 271.375 410.222 271.805 407.85C272.464 404.006 273.137 400.718 273.824 397.987L284.348 354.165C284.835 352.153 285.751 350.518 287.097 349.26C288.443 347.967 289.961 347.32 291.65 347.32C293.798 347.32 295.631 348.272 297.149 350.177C298.666 352.045 299.425 354.309 299.425 356.968C299.425 357.974 299.268 358.999 298.953 360.041L282.716 421.326C281.885 424.596 280.324 427.273 278.033 429.357C275.742 431.405 273.165 432.429 270.301 432.429C267.495 432.429 264.961 431.405 262.698 429.357C260.436 427.273 258.861 424.596 257.973 421.326L241.865 360.903C241.579 359.717 241.435 358.621 241.435 357.615Z" fill="#F9CEBA" fill-opacity="0.25"/>
<path d="M302.75 422.835C302.75 421.972 302.907 420.948 303.223 419.763L319.932 359.016C320.877 355.567 322.552 352.764 324.958 350.608C327.363 348.416 330.084 347.32 333.119 347.32C336.126 347.32 338.818 348.416 341.195 350.608C343.601 352.764 345.276 355.567 346.221 359.016L362.759 419.116C363.045 420.302 363.188 421.398 363.188 422.404C363.188 425.135 362.401 427.488 360.826 429.465C359.251 431.441 357.375 432.429 355.199 432.429C353.423 432.429 351.834 431.782 350.431 430.489C349.056 429.195 348.097 427.524 347.553 425.476L344.632 413.887H320.705L317.827 425.692C317.341 427.704 316.41 429.339 315.035 430.597C313.689 431.818 312.143 432.429 310.396 432.429C308.306 432.429 306.501 431.495 304.984 429.626C303.495 427.758 302.75 425.494 302.75 422.835ZM324.829 397.555H340.508L336.298 380.685C335.239 376.48 334.208 371.809 333.205 366.67H332.132C331.015 372.348 329.998 377.019 329.082 380.685L324.829 397.555Z" fill="#F9CEBA" fill-opacity="0.25"/>
<path d="M376.608 422.188V357.938C376.608 354.992 377.424 352.495 379.056 350.446C380.688 348.362 382.679 347.32 385.027 347.32C387.375 347.32 389.365 348.362 390.998 350.446C392.659 352.495 393.489 354.992 393.489 357.938V414.211H416.685C418.575 414.211 420.193 415.055 421.539 416.744C422.885 418.433 423.558 420.463 423.558 422.835C423.558 425.242 422.885 427.309 421.539 429.033C420.193 430.722 418.575 431.567 416.685 431.567H384.082C381.648 431.567 379.786 430.776 378.498 429.195C377.238 427.578 376.608 425.242 376.608 422.188Z" fill="#F9CEBA" fill-opacity="0.25"/>
<path d="M434.829 371.845C434.829 364.407 437.178 358.28 441.874 353.465C446.599 348.65 453.071 346.242 461.29 346.242C463.896 346.242 466.588 346.583 469.366 347.266C472.172 347.949 474.85 348.955 477.398 350.285C479.976 351.614 482.08 353.429 483.713 355.729C485.374 358.028 486.204 360.598 486.204 363.436C486.204 366.06 485.46 368.251 483.97 370.012C482.481 371.737 480.677 372.599 478.558 372.599C477.212 372.599 475.995 372.258 474.907 371.575C473.819 370.893 472.859 370.066 472.029 369.096C471.198 368.09 470.325 367.102 469.408 366.131C468.492 365.125 467.304 364.281 465.843 363.598C464.411 362.915 462.75 362.574 460.86 362.574C458.083 362.574 455.878 363.275 454.245 364.676C452.613 366.042 451.797 367.73 451.797 369.743C451.797 371.971 452.398 373.803 453.601 375.241C454.804 376.642 456.994 377.756 460.173 378.582L470.869 381.439C477.427 383.236 482.209 386.2 485.216 390.333C488.223 394.465 489.726 399.747 489.726 406.18C489.726 409.126 489.426 411.893 488.824 414.48C488.252 417.032 487.264 419.493 485.86 421.865C484.486 424.236 482.753 426.267 480.663 427.955C478.572 429.644 475.923 430.974 472.716 431.944C469.537 432.95 465.943 433.453 461.934 433.453C458.469 433.453 455.133 433.13 451.926 432.483C448.747 431.836 445.783 430.848 443.034 429.519C440.313 428.189 438.123 426.356 436.462 424.021C434.829 421.649 434.013 418.936 434.013 415.882C434.013 413.187 434.786 410.995 436.333 409.306C437.908 407.581 439.812 406.719 442.046 406.719C443.392 406.719 444.652 407.024 445.826 407.635C447 408.246 448.06 408.982 449.005 409.845C449.95 410.707 450.938 411.57 451.969 412.432C453.028 413.294 454.345 414.031 455.921 414.642C457.496 415.253 459.257 415.558 461.204 415.558C468.421 415.558 472.029 412.917 472.029 407.635C472.029 405.551 471.442 403.862 470.268 402.568C469.122 401.275 467.046 400.233 464.039 399.442L453.214 396.585C447 394.932 442.375 392.094 439.34 388.069C436.333 384.044 434.829 378.636 434.829 371.845Z" fill="#F9CEBA" fill-opacity="0.25"/>
<path d="M4.25259 538.5V477.485C4.25259 473.568 5.36943 470.19 7.60311 467.352C9.8368 464.513 12.5287 463.093 15.6787 463.093C17.6833 463.093 19.5447 463.722 21.2629 464.98C23.0098 466.238 24.3987 467.927 25.4296 470.047L43.0414 506.699C44.0723 508.819 45.3323 511.981 46.8214 516.186H47.251V472.742C47.251 470.083 47.9956 467.819 49.4847 465.95C51.0024 464.046 52.8352 463.093 54.983 463.093C57.0735 463.093 58.8633 464.046 60.3524 465.95C61.8702 467.819 62.629 470.083 62.629 472.742V534.781C62.629 538.482 61.5838 541.645 59.4933 544.268C57.4028 546.891 54.8827 548.203 51.9331 548.203C49.9858 548.203 48.196 547.628 46.5637 546.478C44.9314 545.292 43.6427 543.711 42.6977 541.734L24.1839 503.519C22.3512 499.746 21.0338 496.512 20.232 493.817H19.8025V538.5C19.8025 541.159 19.0436 543.441 17.5258 545.346C16.0081 547.25 14.1896 548.203 12.0705 548.203C9.92271 548.203 8.07562 547.25 6.52923 545.346C5.01147 543.441 4.25259 541.159 4.25259 538.5Z" fill="#F9CEBA" fill-opacity="0.25"/>
<path d="M80.3009 537.961V473.388C80.3009 470.334 80.9309 468.016 82.1909 466.435C83.4796 464.818 85.341 464.01 87.7752 464.01H120.121C121.982 464.01 123.571 464.854 124.889 466.543C126.235 468.232 126.908 470.262 126.908 472.634C126.908 474.934 126.235 476.928 124.889 478.617C123.571 480.27 121.982 481.096 120.121 481.096H97.0106V497.32H116.083C117.887 497.32 119.433 498.147 120.722 499.8C122.039 501.417 122.698 503.357 122.698 505.621C122.698 507.921 122.039 509.897 120.722 511.55C119.433 513.203 117.887 514.029 116.083 514.029H97.0106V530.254H121.882C123.743 530.254 125.333 531.098 126.65 532.787C127.996 534.44 128.669 536.416 128.669 538.716C128.669 541.088 127.996 543.118 126.65 544.807C125.333 546.496 123.743 547.34 121.882 547.34H87.7752C85.341 547.34 83.4796 546.55 82.1909 544.969C80.9309 543.351 80.3009 541.016 80.3009 537.961Z" fill="#F9CEBA" fill-opacity="0.25"/>
<path d="M139.167 473.388C139.167 470.55 139.955 468.124 141.53 466.112C143.105 464.1 145.009 463.093 147.243 463.093C149.219 463.093 150.951 463.866 152.44 465.411C153.929 466.92 154.874 468.843 155.275 471.179L164.124 523.839L174.863 471.717C175.379 469.238 176.452 467.19 178.085 465.573C179.746 463.92 181.636 463.093 183.755 463.093C185.845 463.093 187.707 463.92 189.339 465.573C190.971 467.226 192.045 469.274 192.561 471.717L203.214 523.408L212.191 470.639C212.535 468.519 213.408 466.741 214.812 465.303C216.215 463.83 217.804 463.093 219.58 463.093C221.67 463.093 223.446 464.028 224.906 465.896C226.395 467.729 227.14 469.975 227.14 472.634C227.14 473.137 227.083 473.82 226.968 474.682L215.971 535.859C215.341 539.417 213.867 542.363 211.547 544.699C209.227 547.035 206.564 548.203 203.557 548.203C200.636 548.203 198.03 547.089 195.739 544.861C193.448 542.633 191.945 539.776 191.229 536.29L182.982 495.326L174.691 536.29C173.975 539.776 172.486 542.633 170.224 544.861C167.962 547.089 165.37 548.203 162.449 548.203C159.499 548.203 156.879 547.035 154.588 544.699C152.326 542.363 150.88 539.417 150.25 535.859L139.339 475.598C139.224 474.592 139.167 473.856 139.167 473.388Z" fill="#F9CEBA" fill-opacity="0.25"/>
<path d="M0 654.382C0 653.519 0.157503 652.495 0.47251 651.309L17.1822 590.563C18.1272 587.114 19.8025 584.311 22.208 582.155C24.6135 579.963 27.334 578.867 30.3695 578.867C33.3764 578.867 36.0683 579.963 38.4451 582.155C40.8506 584.311 42.5259 587.114 43.4709 590.563L60.0088 650.662C60.2951 651.848 60.4383 652.944 60.4383 653.95C60.4383 656.681 59.6508 659.035 58.0758 661.011C56.5007 662.988 54.625 663.976 52.4486 663.976C50.6731 663.976 49.0838 663.329 47.6805 662.035C46.306 660.742 45.3466 659.071 44.8025 657.023L41.8816 645.434H17.9554L15.0774 657.238C14.5905 659.251 13.6598 660.886 12.2853 662.143C10.9393 663.365 9.39292 663.976 7.64607 663.976C5.55557 663.976 3.75144 663.042 2.23368 661.173C0.744561 659.304 0 657.041 0 654.382ZM22.0791 629.102H37.7578L33.5482 612.231C32.4886 608.027 31.4577 603.356 30.4554 598.217H29.3815C28.2647 603.895 27.2481 608.566 26.3317 612.231L22.0791 629.102Z" fill="#F9CEBA" fill-opacity="0.25"/>
<path d="M73.8576 653.411V589.162C73.8576 586.107 74.4876 583.79 75.7476 582.209C77.0363 580.592 78.8977 579.783 81.3318 579.783H102.853C110.499 579.783 116.498 582.011 120.851 586.467C125.232 590.923 127.423 597.193 127.423 605.278C127.423 610.668 126.392 615.375 124.33 619.4C122.268 623.389 119.362 626.551 115.61 628.887V629.102L123.901 649.099C124.531 650.501 124.846 652.082 124.846 653.843C124.846 656.645 124.044 659.035 122.44 661.011C120.865 662.988 118.946 663.976 116.684 663.976C115.138 663.976 113.706 663.473 112.389 662.467C111.1 661.461 110.126 660.131 109.468 658.478L99.6309 634.654H90.7391V653.411C90.7391 656.358 89.9086 658.855 88.2477 660.904C86.6154 662.952 84.6251 663.976 82.2769 663.976C79.9286 663.976 77.9384 662.952 76.3061 660.904C74.6737 658.855 73.8576 656.358 73.8576 653.411ZM90.7391 617.837H99.2443C100.791 617.837 102.165 617.675 103.368 617.352C104.571 617.028 105.702 616.489 106.761 615.735C107.821 614.944 108.637 613.794 109.21 612.285C109.783 610.74 110.069 608.871 110.069 606.68C110.069 604.416 109.783 602.511 109.21 600.966C108.637 599.421 107.821 598.271 106.761 597.516C105.702 596.726 104.571 596.169 103.368 595.845C102.194 595.522 100.819 595.36 99.2443 595.36H90.7391V617.837Z" fill="#F9CEBA" fill-opacity="0.25"/>
<path d="M141.83 653.411V589.162C141.83 586.107 142.46 583.79 143.72 582.209C145.009 580.592 146.87 579.783 149.305 579.783H170.825C178.471 579.783 184.471 582.011 188.824 586.467C193.205 590.923 195.396 597.193 195.396 605.278C195.396 610.668 194.365 615.375 192.303 619.4C190.241 623.389 187.334 626.551 183.583 628.887V629.102L191.873 649.099C192.503 650.501 192.818 652.082 192.818 653.843C192.818 656.645 192.017 659.035 190.413 661.011C188.838 662.988 186.919 663.976 184.657 663.976C183.11 663.976 181.679 663.473 180.361 662.467C179.073 661.461 178.099 660.131 177.44 658.478L167.604 634.654H158.712V653.411C158.712 656.358 157.881 658.855 156.22 660.904C154.588 662.952 152.598 663.976 150.25 663.976C147.901 663.976 145.911 662.952 144.279 660.904C142.646 658.855 141.83 656.358 141.83 653.411ZM158.712 617.837H167.217C168.763 617.837 170.138 617.675 171.341 617.352C172.543 617.028 173.675 616.489 174.734 615.735C175.794 614.944 176.61 613.794 177.183 612.285C177.755 610.74 178.042 608.871 178.042 606.68C178.042 604.416 177.755 602.511 177.183 600.966C176.61 599.421 175.794 598.271 174.734 597.516C173.675 596.726 172.543 596.169 171.341 595.845C170.167 595.522 168.792 595.36 167.217 595.36H158.712V617.837Z" fill="#F9CEBA" fill-opacity="0.25"/>
<path d="M209.803 653.411V589.485C209.803 586.539 210.619 584.041 212.251 581.993C213.884 579.909 215.874 578.867 218.222 578.867C220.57 578.867 222.561 579.909 224.193 581.993C225.854 584.041 226.684 586.539 226.684 589.485V653.411C226.684 656.358 225.854 658.855 224.193 660.904C222.561 662.952 220.57 663.976 218.222 663.976C215.874 663.976 213.884 662.952 212.251 660.904C210.619 658.855 209.803 656.358 209.803 653.411Z" fill="#F9CEBA" fill-opacity="0.25"/>
<path d="M241.435 589.162C241.435 586.359 242.252 583.951 243.884 581.939C245.516 579.891 247.463 578.867 249.726 578.867C251.559 578.867 253.191 579.567 254.623 580.969C256.083 582.334 257.057 584.077 257.544 586.197L268.025 629.533C268.712 632.264 269.385 635.552 270.044 639.397C270.101 639.721 270.201 640.367 270.344 641.338C270.516 642.272 270.645 642.973 270.731 643.44H271.075C271.132 643.116 271.375 641.769 271.805 639.397C272.464 635.552 273.137 632.264 273.824 629.533L284.348 585.712C284.835 583.7 285.751 582.065 287.097 580.807C288.443 579.514 289.961 578.867 291.65 578.867C293.798 578.867 295.631 579.819 297.149 581.724C298.666 583.592 299.425 585.856 299.425 588.515C299.425 589.521 299.268 590.545 298.953 591.587L282.716 652.872C281.885 656.142 280.324 658.819 278.033 660.904C275.742 662.952 273.165 663.976 270.301 663.976C267.495 663.976 264.961 662.952 262.698 660.904C260.436 658.819 258.861 656.142 257.973 652.872L241.865 592.45C241.579 591.264 241.435 590.168 241.435 589.162Z" fill="#F9CEBA" fill-opacity="0.25"/>
<path d="M302.75 654.382C302.75 653.519 302.907 652.495 303.223 651.309L319.932 590.563C320.877 587.114 322.552 584.311 324.958 582.155C327.363 579.963 330.084 578.867 333.119 578.867C336.126 578.867 338.818 579.963 341.195 582.155C343.601 584.311 345.276 587.114 346.221 590.563L362.759 650.662C363.045 651.848 363.188 652.944 363.188 653.95C363.188 656.681 362.401 659.035 360.826 661.011C359.251 662.988 357.375 663.976 355.199 663.976C353.423 663.976 351.834 663.329 350.431 662.035C349.056 660.742 348.097 659.071 347.553 657.023L344.632 645.434H320.705L317.827 657.238C317.341 659.251 316.41 660.886 315.035 662.143C313.689 663.365 312.143 663.976 310.396 663.976C308.306 663.976 306.501 663.042 304.984 661.173C303.495 659.304 302.75 657.041 302.75 654.382ZM324.829 629.102H340.508L336.298 612.231C335.239 608.027 334.208 603.356 333.205 598.217H332.132C331.015 603.895 329.998 608.566 329.082 612.231L324.829 629.102Z" fill="#F9CEBA" fill-opacity="0.25"/>
<path d="M376.608 653.735V589.485C376.608 586.539 377.424 584.041 379.056 581.993C380.688 579.909 382.679 578.867 385.027 578.867C387.375 578.867 389.365 579.909 390.998 581.993C392.659 584.041 393.489 586.539 393.489 589.485V645.757H416.685C418.575 645.757 420.193 646.602 421.539 648.291C422.885 649.98 423.558 652.01 423.558 654.382C423.558 656.789 422.885 658.855 421.539 660.58C420.193 662.269 418.575 663.113 416.685 663.113H384.082C381.648 663.113 379.786 662.323 378.498 660.742C377.238 659.125 376.608 656.789 376.608 653.735Z" fill="#F9CEBA" fill-opacity="0.25"/>
<path d="M434.829 603.392C434.829 595.953 437.178 589.827 441.874 585.011C446.599 580.196 453.071 577.789 461.29 577.789C463.896 577.789 466.588 578.13 469.366 578.813C472.172 579.496 474.85 580.502 477.398 581.831C479.976 583.161 482.08 584.976 483.713 587.275C485.374 589.575 486.204 592.144 486.204 594.983C486.204 597.606 485.46 599.798 483.97 601.559C482.481 603.284 480.677 604.146 478.558 604.146C477.212 604.146 475.995 603.805 474.907 603.122C473.819 602.439 472.859 601.613 472.029 600.643C471.198 599.636 470.325 598.648 469.408 597.678C468.492 596.672 467.304 595.827 465.843 595.145C464.411 594.462 462.75 594.121 460.86 594.121C458.083 594.121 455.878 594.821 454.245 596.223C452.613 597.588 451.797 599.277 451.797 601.289C451.797 603.517 452.398 605.35 453.601 606.787C454.804 608.189 456.994 609.303 460.173 610.129L470.869 612.986C477.427 614.783 482.209 617.747 485.216 621.88C488.223 626.012 489.726 631.294 489.726 637.726C489.726 640.673 489.426 643.44 488.824 646.027C488.252 648.578 487.264 651.04 485.86 653.411C484.486 655.783 482.753 657.813 480.663 659.502C478.572 661.191 475.923 662.521 472.716 663.491C469.537 664.497 465.943 665 461.934 665C458.469 665 455.133 664.677 451.926 664.03C448.747 663.383 445.783 662.395 443.034 661.065C440.313 659.736 438.123 657.903 436.462 655.567C434.829 653.196 434.013 650.483 434.013 647.428C434.013 644.733 434.786 642.541 436.333 640.852C437.908 639.128 439.812 638.265 442.046 638.265C443.392 638.265 444.652 638.571 445.826 639.182C447 639.792 448.06 640.529 449.005 641.391C449.95 642.254 450.938 643.116 451.969 643.979C453.028 644.841 454.345 645.578 455.921 646.189C457.496 646.8 459.257 647.105 461.204 647.105C468.421 647.105 472.029 644.464 472.029 639.182C472.029 637.097 471.442 635.409 470.268 634.115C469.122 632.821 467.046 631.779 464.039 630.989L453.214 628.132C447 626.479 442.375 623.64 439.34 619.616C436.333 615.591 434.829 610.183 434.829 603.392Z" fill="#F9CEBA" fill-opacity="0.25"/>
<path d="M538.526 79.6652V18.6496C538.526 14.7328 539.643 11.3551 541.877 8.5163C544.11 5.67754 546.802 4.25815 549.952 4.25815C551.957 4.25815 553.818 4.88699 555.536 6.14467C557.283 7.40236 558.672 9.09124 559.703 11.2113L577.315 47.8638C578.346 49.9839 579.606 53.146 581.095 57.3503H581.525V13.9064C581.525 11.2473 582.269 8.98344 583.758 7.11489C585.276 5.2104 587.109 4.25815 589.257 4.25815C591.347 4.25815 593.137 5.2104 594.626 7.11489C596.144 8.98344 596.903 11.2473 596.903 13.9064V75.946C596.903 79.6472 595.857 82.8094 593.767 85.4325C591.676 88.0557 589.156 89.3673 586.207 89.3673C584.259 89.3673 582.47 88.7924 580.837 87.6425C579.205 86.4567 577.916 84.8756 576.971 82.8992L558.457 44.6836C556.625 40.9106 555.307 37.6766 554.506 34.9815H554.076V79.6652C554.076 82.3243 553.317 84.6061 551.799 86.5106C550.282 88.415 548.463 89.3673 546.344 89.3673C544.196 89.3673 542.349 88.415 540.803 86.5106C539.285 84.6061 538.526 82.3243 538.526 79.6652Z" fill="#F9CEBA" fill-opacity="0.25"/>
<path d="M614.575 79.1262V14.5532C614.575 11.4988 615.204 9.18108 616.464 7.59999C617.753 5.98297 619.615 5.17446 622.049 5.17446H654.394C656.256 5.17446 657.845 6.01891 659.162 7.70779C660.508 9.39668 661.181 11.4269 661.181 13.7986C661.181 16.0983 660.508 18.0927 659.162 19.7815C657.845 21.4345 656.256 22.261 654.394 22.261H631.284V38.4851H650.356C652.16 38.4851 653.707 39.3115 654.996 40.9645C656.313 42.5815 656.971 44.5219 656.971 46.7858C656.971 49.0855 656.313 51.0619 654.996 52.7148C653.707 54.3678 652.16 55.1943 650.356 55.1943H631.284V71.4184H656.155C658.017 71.4184 659.606 72.2628 660.923 73.9517C662.269 75.6047 662.942 77.581 662.942 79.8808C662.942 82.2524 662.269 84.2827 660.923 85.9715C659.606 87.6604 658.017 88.5049 656.155 88.5049H622.049C619.615 88.5049 617.753 87.7143 616.464 86.1332C615.204 84.5162 614.575 82.1805 614.575 79.1262Z" fill="#F9CEBA" fill-opacity="0.25"/>
<path d="M673.441 14.5532C673.441 11.7144 674.228 9.28888 675.803 7.27659C677.378 5.2643 679.283 4.25815 681.516 4.25815C683.492 4.25815 685.225 5.03073 686.714 6.57588C688.203 8.0851 689.148 10.0076 689.549 12.3433L698.398 65.0042L709.137 12.8823C709.652 10.4028 710.726 8.3546 712.358 6.73758C714.019 5.08463 715.909 4.25815 718.028 4.25815C720.119 4.25815 721.98 5.08463 723.613 6.73758C725.245 8.39054 726.319 10.4388 726.834 12.8823L737.487 64.573L746.465 11.8042C746.808 9.68415 747.682 7.90543 749.085 6.46808C750.488 4.99479 752.078 4.25815 753.853 4.25815C755.944 4.25815 757.719 5.19243 759.18 7.06099C760.669 8.89361 761.413 11.1395 761.413 13.7986C761.413 14.3016 761.356 14.9844 761.242 15.8468L750.245 77.024C749.615 80.5815 748.14 83.528 745.821 85.8637C743.501 88.1994 740.838 89.3673 737.831 89.3673C734.91 89.3673 732.304 88.2533 730.013 86.0255C727.722 83.7976 726.219 80.9408 725.503 77.4552L717.255 36.4907L708.965 77.4552C708.249 80.9408 706.76 83.7976 704.497 86.0255C702.235 88.2533 699.643 89.3673 696.722 89.3673C693.773 89.3673 691.153 88.1994 688.862 85.8637C686.599 83.528 685.153 80.5815 684.523 77.024L673.612 16.7631C673.498 15.757 673.441 15.0203 673.441 14.5532Z" fill="#F9CEBA" fill-opacity="0.25"/>
<path d="M534.273 191.288C534.273 190.426 534.431 189.402 534.746 188.216L551.456 127.47C552.401 124.02 554.076 121.217 556.482 119.061C558.887 116.869 561.608 115.773 564.643 115.773C567.65 115.773 570.342 116.869 572.719 119.061C575.124 121.217 576.799 124.02 577.744 127.47L594.282 187.569C594.569 188.755 594.712 189.851 594.712 190.857C594.712 193.588 593.924 195.942 592.349 197.918C590.774 199.894 588.899 200.882 586.722 200.882C584.947 200.882 583.357 200.236 581.954 198.942C580.58 197.648 579.62 195.978 579.076 193.929L576.155 182.341H552.229L549.351 194.145C548.864 196.157 547.933 197.792 546.559 199.05C545.213 200.272 543.666 200.882 541.92 200.882C539.829 200.882 538.025 199.948 536.507 198.08C535.018 196.211 534.273 193.947 534.273 191.288ZM556.353 166.009H572.031L567.822 149.138C566.762 144.934 565.731 140.262 564.729 135.124H563.655C562.538 140.801 561.522 145.473 560.605 149.138L556.353 166.009Z" fill="#F9CEBA" fill-opacity="0.25"/>
<path d="M608.131 190.318V126.068C608.131 123.014 608.761 120.696 610.021 119.115C611.31 117.498 613.171 116.69 615.605 116.69H637.126C644.772 116.69 650.772 118.918 655.124 123.373C659.506 127.829 661.697 134.1 661.697 142.185C661.697 147.575 660.666 152.282 658.604 156.307C656.542 160.295 653.635 163.457 649.884 165.793V166.009L658.174 186.006C658.804 187.407 659.119 188.988 659.119 190.749C659.119 193.552 658.317 195.942 656.714 197.918C655.139 199.894 653.22 200.882 650.958 200.882C649.411 200.882 647.979 200.379 646.662 199.373C645.374 198.367 644.4 197.038 643.741 195.385L633.904 171.561H625.013V190.318C625.013 193.265 624.182 195.762 622.521 197.81C620.889 199.858 618.899 200.882 616.55 200.882C614.202 200.882 612.212 199.858 610.58 197.81C608.947 195.762 608.131 193.265 608.131 190.318ZM625.013 154.744H633.518C635.064 154.744 636.439 154.582 637.642 154.258C638.844 153.935 639.975 153.396 641.035 152.641C642.095 151.851 642.911 150.701 643.483 149.192C644.056 147.647 644.343 145.778 644.343 143.586C644.343 141.322 644.056 139.418 643.483 137.873C642.911 136.327 642.095 135.178 641.035 134.423C639.975 133.632 638.844 133.075 637.642 132.752C636.467 132.429 635.093 132.267 633.518 132.267H625.013V154.744Z" fill="#F9CEBA" fill-opacity="0.25"/>
<path d="M676.104 190.318V126.068C676.104 123.014 676.734 120.696 677.994 119.115C679.282 117.498 681.144 116.69 683.578 116.69H705.099C712.745 116.69 718.744 118.918 723.097 123.373C727.479 127.829 729.669 134.1 729.669 142.185C729.669 147.575 728.638 152.282 726.576 156.307C724.515 160.295 721.608 163.457 717.857 165.793V166.009L726.147 186.006C726.777 187.407 727.092 188.988 727.092 190.749C727.092 193.552 726.29 195.942 724.686 197.918C723.111 199.894 721.193 200.882 718.93 200.882C717.384 200.882 715.952 200.379 714.635 199.373C713.346 198.367 712.373 197.038 711.714 195.385L701.877 171.561H692.985V190.318C692.985 193.265 692.155 195.762 690.494 197.81C688.862 199.858 686.871 200.882 684.523 200.882C682.175 200.882 680.185 199.858 678.552 197.81C676.92 195.762 676.104 193.265 676.104 190.318ZM692.985 154.744H701.49C703.037 154.744 704.411 154.582 705.614 154.258C706.817 153.935 707.948 153.396 709.008 152.641C710.067 151.851 710.883 150.701 711.456 149.192C712.029 147.647 712.315 145.778 712.315 143.586C712.315 141.322 712.029 139.418 711.456 137.873C710.883 136.327 710.067 135.178 709.008 134.423C707.948 133.632 706.817 133.075 705.614 132.752C704.44 132.429 703.066 132.267 701.49 132.267H692.985V154.744Z" fill="#F9CEBA" fill-opacity="0.25"/>
<path d="M744.077 190.318V126.392C744.077 123.445 744.893 120.948 746.525 118.9C748.157 116.815 750.147 115.773 752.496 115.773C754.844 115.773 756.834 116.815 758.466 118.9C760.127 120.948 760.958 123.445 760.958 126.392V190.318C760.958 193.265 760.127 195.762 758.466 197.81C756.834 199.858 754.844 200.882 752.496 200.882C750.147 200.882 748.157 199.858 746.525 197.81C744.893 195.762 744.077 193.265 744.077 190.318Z" fill="#F9CEBA" fill-opacity="0.25"/>
<path d="M775.709 126.068C775.709 123.266 776.525 120.858 778.157 118.846C779.79 116.797 781.737 115.773 783.999 115.773C785.832 115.773 787.464 116.474 788.896 117.875C790.357 119.241 791.33 120.984 791.817 123.104L802.298 166.44C802.986 169.171 803.659 172.459 804.317 176.304C804.374 176.627 804.475 177.274 804.618 178.244C804.79 179.178 804.919 179.879 805.005 180.346H805.348C805.405 180.023 805.649 178.675 806.078 176.304C806.737 172.459 807.41 169.171 808.097 166.44L818.621 122.619C819.108 120.606 820.025 118.971 821.371 117.714C822.716 116.42 824.234 115.773 825.924 115.773C828.072 115.773 829.904 116.726 831.422 118.63C832.94 120.499 833.699 122.762 833.699 125.422C833.699 126.428 833.541 127.452 833.226 128.494L816.989 189.779C816.159 193.049 814.598 195.726 812.307 197.81C810.016 199.858 807.439 200.882 804.575 200.882C801.769 200.882 799.234 199.858 796.972 197.81C794.71 195.726 793.135 193.049 792.247 189.779L776.138 129.356C775.852 128.171 775.709 127.075 775.709 126.068Z" fill="#F9CEBA" fill-opacity="0.25"/>
<path d="M837.024 191.288C837.024 190.426 837.181 189.402 837.496 188.216L854.206 127.47C855.151 124.02 856.826 121.217 859.232 119.061C861.637 116.869 864.357 115.773 867.393 115.773C870.4 115.773 873.092 116.869 875.469 119.061C877.874 121.217 879.549 124.02 880.494 127.47L897.032 187.569C897.319 188.755 897.462 189.851 897.462 190.857C897.462 193.588 896.674 195.942 895.099 197.918C893.524 199.894 891.649 200.882 889.472 200.882C887.697 200.882 886.107 200.236 884.704 198.942C883.329 197.648 882.37 195.978 881.826 193.929L878.905 182.341H854.979L852.101 194.145C851.614 196.157 850.683 197.792 849.309 199.05C847.963 200.272 846.416 200.882 844.67 200.882C842.579 200.882 840.775 199.948 839.257 198.08C837.768 196.211 837.024 193.947 837.024 191.288ZM859.103 166.009H874.781L870.572 149.138C869.512 144.934 868.481 140.262 867.479 135.124H866.405C865.288 140.801 864.272 145.473 863.355 149.138L859.103 166.009Z" fill="#F9CEBA" fill-opacity="0.25"/>
<path d="M910.881 190.641V126.392C910.881 123.445 911.697 120.948 913.33 118.9C914.962 116.815 916.952 115.773 919.3 115.773C921.649 115.773 923.639 116.815 925.271 118.9C926.932 120.948 927.763 123.445 927.763 126.392V182.664H950.959C952.849 182.664 954.467 183.509 955.812 185.197C957.158 186.886 957.831 188.917 957.831 191.288C957.831 193.696 957.158 195.762 955.812 197.487C954.467 199.176 952.849 200.02 950.959 200.02H918.355C915.921 200.02 914.06 199.23 912.771 197.648C911.511 196.031 910.881 193.696 910.881 190.641Z" fill="#F9CEBA" fill-opacity="0.25"/>
<path d="M969.103 140.298C969.103 132.86 971.451 126.733 976.148 121.918C980.873 117.103 987.345 114.695 995.564 114.695C998.17 114.695 1000.86 115.037 1003.64 115.719C1006.45 116.402 1009.12 117.408 1011.67 118.738C1014.25 120.067 1016.35 121.882 1017.99 124.182C1019.65 126.482 1020.48 129.051 1020.48 131.89C1020.48 134.513 1019.73 136.705 1018.24 138.466C1016.75 140.19 1014.95 141.053 1012.83 141.053C1011.49 141.053 1010.27 140.711 1009.18 140.029C1008.09 139.346 1007.13 138.519 1006.3 137.549C1005.47 136.543 1004.6 135.555 1003.68 134.585C1002.77 133.579 1001.58 132.734 1000.12 132.051C998.685 131.369 997.024 131.027 995.134 131.027C992.356 131.027 990.151 131.728 988.519 133.129C986.886 134.495 986.07 136.184 986.07 138.196C986.07 140.424 986.672 142.257 987.875 143.694C989.077 145.095 991.268 146.209 994.447 147.036L1005.14 149.892C1011.7 151.689 1016.48 154.654 1019.49 158.786C1022.5 162.918 1024 168.201 1024 174.633C1024 177.579 1023.7 180.346 1023.1 182.934C1022.53 185.485 1021.54 187.946 1020.13 190.318C1018.76 192.69 1017.03 194.72 1014.94 196.409C1012.85 198.098 1010.2 199.427 1006.99 200.397C1003.81 201.404 1000.22 201.907 996.208 201.907C992.743 201.907 989.407 201.583 986.199 200.936C983.021 200.29 980.057 199.301 977.307 197.972C974.587 196.642 972.396 194.81 970.735 192.474C969.103 190.102 968.287 187.389 968.287 184.335C968.287 181.64 969.06 179.448 970.606 177.759C972.181 176.034 974.086 175.172 976.32 175.172C977.665 175.172 978.925 175.477 980.099 176.088C981.274 176.699 982.333 177.436 983.278 178.298C984.223 179.161 985.211 180.023 986.242 180.885C987.302 181.748 988.619 182.484 990.194 183.095C991.769 183.706 993.53 184.012 995.478 184.012C1002.69 184.012 1006.3 181.37 1006.3 176.088C1006.3 174.004 1005.72 172.315 1004.54 171.022C1003.4 169.728 1001.32 168.686 998.313 167.895L987.488 165.039C981.274 163.386 976.649 160.547 973.613 156.522C970.606 152.498 969.103 147.09 969.103 140.298Z" fill="#F9CEBA" fill-opacity="0.25"/>
<path d="M538.526 306.954V245.938C538.526 242.021 539.643 238.644 541.877 235.805C544.11 232.966 546.802 231.547 549.952 231.547C551.957 231.547 553.818 232.176 555.536 233.433C557.283 234.691 558.672 236.38 559.703 238.5L577.315 275.152C578.346 277.272 579.606 280.435 581.095 284.639H581.525V241.195C581.525 238.536 582.269 236.272 583.758 234.403C585.276 232.499 587.109 231.547 589.257 231.547C591.347 231.547 593.137 232.499 594.626 234.403C596.144 236.272 596.903 238.536 596.903 241.195V303.235C596.903 306.936 595.857 310.098 593.767 312.721C591.676 315.344 589.156 316.656 586.207 316.656C584.259 316.656 582.47 316.081 580.837 314.931C579.205 313.745 577.916 312.164 576.971 310.188L558.457 271.972C556.625 268.199 555.307 264.965 554.506 262.27H554.076V306.954C554.076 309.613 553.317 311.895 551.799 313.799C550.282 315.704 548.463 316.656 546.344 316.656C544.196 316.656 542.349 315.704 540.803 313.799C539.285 311.895 538.526 309.613 538.526 306.954Z" fill="#F9CEBA" fill-opacity="0.25"/>
<path d="M614.574 306.415V241.842C614.574 238.787 615.204 236.47 616.464 234.889C617.753 233.272 619.615 232.463 622.049 232.463H654.394C656.256 232.463 657.845 233.307 659.162 234.996C660.508 236.685 661.181 238.715 661.181 241.087C661.181 243.387 660.508 245.381 659.162 247.07C657.845 248.723 656.256 249.55 654.394 249.55H631.284V265.774H650.356C652.16 265.774 653.707 266.6 654.996 268.253C656.313 269.87 656.971 271.811 656.971 274.074C656.971 276.374 656.313 278.35 654.996 280.003C653.707 281.656 652.16 282.483 650.356 282.483H631.284V298.707H656.155C658.017 298.707 659.606 299.551 660.923 301.24C662.269 302.893 662.942 304.87 662.942 307.169C662.942 309.541 662.269 311.571 660.923 313.26C659.606 314.949 658.017 315.793 656.155 315.793H622.049C619.615 315.793 617.753 315.003 616.464 313.422C615.204 311.805 614.574 309.469 614.574 306.415Z" fill="#F9CEBA" fill-opacity="0.25"/>
<path d="M673.441 241.842C673.441 239.003 674.228 236.577 675.803 234.565C677.378 232.553 679.283 231.547 681.516 231.547C683.492 231.547 685.225 232.319 686.714 233.864C688.203 235.374 689.148 237.296 689.549 239.632L698.398 292.293L709.137 240.171C709.652 237.691 710.726 235.643 712.358 234.026C714.019 232.373 715.909 231.547 718.028 231.547C720.119 231.547 721.98 232.373 723.613 234.026C725.245 235.679 726.319 237.727 726.834 240.171L737.487 291.862L746.465 239.093C746.808 236.973 747.682 235.194 749.085 233.757C750.488 232.283 752.078 231.547 753.853 231.547C755.944 231.547 757.719 232.481 759.18 234.35C760.669 236.182 761.413 238.428 761.413 241.087C761.413 241.59 761.356 242.273 761.242 243.135L750.245 304.313C749.615 307.87 748.14 310.817 745.821 313.152C743.501 315.488 740.838 316.656 737.831 316.656C734.91 316.656 732.304 315.542 730.013 313.314C727.722 311.086 726.218 308.229 725.503 304.744L717.255 263.779L708.965 304.744C708.249 308.229 706.76 311.086 704.497 313.314C702.235 315.542 699.643 316.656 696.722 316.656C693.773 316.656 691.153 315.488 688.862 313.152C686.599 310.817 685.153 307.87 684.523 304.313L673.612 244.052C673.498 243.046 673.441 242.309 673.441 241.842Z" fill="#F9CEBA" fill-opacity="0.25"/>
<path d="M534.273 422.835C534.273 421.972 534.431 420.948 534.746 419.763L551.456 359.016C552.401 355.567 554.076 352.764 556.482 350.608C558.887 348.416 561.608 347.32 564.643 347.32C567.65 347.32 570.342 348.416 572.719 350.608C575.124 352.764 576.799 355.567 577.744 359.016L594.282 419.116C594.569 420.302 594.712 421.398 594.712 422.404C594.712 425.135 593.924 427.488 592.349 429.465C590.774 431.441 588.899 432.429 586.722 432.429C584.947 432.429 583.357 431.782 581.954 430.489C580.58 429.195 579.62 427.524 579.076 425.476L576.155 413.887H552.229L549.351 425.692C548.864 427.704 547.933 429.339 546.559 430.597C545.213 431.818 543.666 432.429 541.92 432.429C539.829 432.429 538.025 431.495 536.507 429.626C535.018 427.758 534.273 425.494 534.273 422.835ZM556.353 397.555H572.031L567.822 380.685C566.762 376.48 565.731 371.809 564.729 366.67H563.655C562.538 372.348 561.522 377.019 560.605 380.685L556.353 397.555Z" fill="#F9CEBA" fill-opacity="0.25"/>
<path d="M608.131 421.865V357.615C608.131 354.561 608.761 352.243 610.021 350.662C611.31 349.045 613.171 348.236 615.605 348.236H637.126C644.772 348.236 650.772 350.464 655.124 354.92C659.506 359.376 661.697 365.646 661.697 373.731C661.697 379.121 660.666 383.829 658.604 387.853C656.542 391.842 653.635 395.004 649.884 397.34V397.555L658.174 417.553C658.804 418.954 659.119 420.535 659.119 422.296C659.119 425.099 658.317 427.488 656.714 429.465C655.139 431.441 653.22 432.429 650.958 432.429C649.411 432.429 647.979 431.926 646.662 430.92C645.374 429.914 644.4 428.584 643.741 426.931L633.904 403.107H625.013V421.865C625.013 424.811 624.182 427.309 622.521 429.357C620.889 431.405 618.899 432.429 616.55 432.429C614.202 432.429 612.212 431.405 610.58 429.357C608.947 427.309 608.131 424.811 608.131 421.865ZM625.013 386.29H633.518C635.064 386.29 636.439 386.129 637.642 385.805C638.844 385.482 639.975 384.943 641.035 384.188C642.095 383.398 642.911 382.248 643.483 380.738C644.056 379.193 644.343 377.325 644.343 375.133C644.343 372.869 644.056 370.964 643.483 369.419C642.911 367.874 642.095 366.724 641.035 365.97C639.975 365.179 638.844 364.622 637.642 364.299C636.467 363.975 635.093 363.814 633.518 363.814H625.013V386.29Z" fill="#F9CEBA" fill-opacity="0.25"/>
<path d="M676.104 421.865V357.615C676.104 354.561 676.734 352.243 677.994 350.662C679.282 349.045 681.144 348.236 683.578 348.236H705.099C712.745 348.236 718.744 350.464 723.097 354.92C727.479 359.376 729.669 365.646 729.669 373.731C729.669 379.121 728.638 383.829 726.576 387.853C724.515 391.842 721.608 395.004 717.857 397.34V397.555L726.147 417.553C726.777 418.954 727.092 420.535 727.092 422.296C727.092 425.099 726.29 427.488 724.686 429.465C723.111 431.441 721.193 432.429 718.93 432.429C717.384 432.429 715.952 431.926 714.635 430.92C713.346 429.914 712.373 428.584 711.714 426.931L701.877 403.107H692.985V421.865C692.985 424.811 692.155 427.309 690.494 429.357C688.862 431.405 686.871 432.429 684.523 432.429C682.175 432.429 680.185 431.405 678.552 429.357C676.92 427.309 676.104 424.811 676.104 421.865ZM692.985 386.29H701.49C703.037 386.29 704.411 386.129 705.614 385.805C706.817 385.482 707.948 384.943 709.008 384.188C710.067 383.398 710.883 382.248 711.456 380.738C712.029 379.193 712.315 377.325 712.315 375.133C712.315 372.869 712.029 370.964 711.456 369.419C710.883 367.874 710.067 366.724 709.008 365.97C707.948 365.179 706.817 364.622 705.614 364.299C704.44 363.975 703.066 363.814 701.49 363.814H692.985V386.29Z" fill="#F9CEBA" fill-opacity="0.25"/>
<path d="M744.077 421.865V357.938C744.077 354.992 744.893 352.495 746.525 350.446C748.157 348.362 750.147 347.32 752.496 347.32C754.844 347.32 756.834 348.362 758.466 350.446C760.127 352.495 760.958 354.992 760.958 357.938V421.865C760.958 424.811 760.127 427.309 758.466 429.357C756.834 431.405 754.844 432.429 752.496 432.429C750.147 432.429 748.157 431.405 746.525 429.357C744.893 427.309 744.077 424.811 744.077 421.865Z" fill="#F9CEBA" fill-opacity="0.25"/>
<path d="M775.709 357.615C775.709 354.812 776.525 352.405 778.157 350.392C779.79 348.344 781.737 347.32 783.999 347.32C785.832 347.32 787.464 348.021 788.896 349.422C790.357 350.788 791.33 352.53 791.817 354.651L802.298 397.987C802.986 400.718 803.659 404.006 804.317 407.85C804.374 408.174 804.475 408.821 804.618 409.791C804.79 410.725 804.919 411.426 805.005 411.893H805.348C805.405 411.57 805.649 410.222 806.078 407.85C806.737 404.006 807.41 400.718 808.097 397.987L818.621 354.165C819.108 352.153 820.025 350.518 821.371 349.26C822.716 347.967 824.234 347.32 825.924 347.32C828.072 347.32 829.904 348.272 831.422 350.177C832.94 352.045 833.699 354.309 833.699 356.968C833.699 357.974 833.541 358.999 833.226 360.041L816.989 421.326C816.159 424.596 814.598 427.273 812.307 429.357C810.016 431.405 807.439 432.429 804.575 432.429C801.769 432.429 799.234 431.405 796.972 429.357C794.71 427.273 793.135 424.596 792.247 421.326L776.138 360.903C775.852 359.717 775.709 358.621 775.709 357.615Z" fill="#F9CEBA" fill-opacity="0.25"/>
<path d="M837.024 422.835C837.024 421.972 837.181 420.948 837.496 419.763L854.206 359.016C855.151 355.567 856.826 352.764 859.232 350.608C861.637 348.416 864.357 347.32 867.393 347.32C870.4 347.32 873.092 348.416 875.469 350.608C877.874 352.764 879.549 355.567 880.494 359.016L897.032 419.116C897.319 420.302 897.462 421.398 897.462 422.404C897.462 425.135 896.674 427.488 895.099 429.465C893.524 431.441 891.649 432.429 889.472 432.429C887.697 432.429 886.107 431.782 884.704 430.489C883.329 429.195 882.37 427.524 881.826 425.476L878.905 413.887H854.979L852.101 425.692C851.614 427.704 850.683 429.339 849.309 430.597C847.963 431.818 846.416 432.429 844.67 432.429C842.579 432.429 840.775 431.495 839.257 429.626C837.768 427.758 837.024 425.494 837.024 422.835ZM859.103 397.555H874.781L870.572 380.685C869.512 376.48 868.481 371.809 867.479 366.67H866.405C865.288 372.348 864.272 377.019 863.355 380.685L859.103 397.555Z" fill="#F9CEBA" fill-opacity="0.25"/>
<path d="M910.881 422.188V357.938C910.881 354.992 911.697 352.495 913.33 350.446C914.962 348.362 916.952 347.32 919.3 347.32C921.649 347.32 923.639 348.362 925.271 350.446C926.932 352.495 927.763 354.992 927.763 357.938V414.211H950.959C952.849 414.211 954.467 415.055 955.812 416.744C957.158 418.433 957.831 420.463 957.831 422.835C957.831 425.242 957.158 427.309 955.812 429.033C954.467 430.722 952.849 431.567 950.959 431.567H918.355C915.921 431.567 914.06 430.776 912.771 429.195C911.511 427.578 910.881 425.242 910.881 422.188Z" fill="#F9CEBA" fill-opacity="0.25"/>
<path d="M969.103 371.845C969.103 364.407 971.451 358.28 976.148 353.465C980.873 348.65 987.345 346.242 995.564 346.242C998.17 346.242 1000.86 346.583 1003.64 347.266C1006.45 347.949 1009.12 348.955 1011.67 350.285C1014.25 351.614 1016.35 353.429 1017.99 355.729C1019.65 358.028 1020.48 360.598 1020.48 363.436C1020.48 366.06 1019.73 368.251 1018.24 370.012C1016.75 371.737 1014.95 372.599 1012.83 372.599C1011.49 372.599 1010.27 372.258 1009.18 371.575C1008.09 370.893 1007.13 370.066 1006.3 369.096C1005.47 368.09 1004.6 367.102 1003.68 366.131C1002.77 365.125 1001.58 364.281 1000.12 363.598C998.685 362.915 997.024 362.574 995.134 362.574C992.356 362.574 990.151 363.275 988.519 364.676C986.886 366.042 986.07 367.73 986.07 369.743C986.07 371.971 986.672 373.803 987.875 375.241C989.077 376.642 991.268 377.756 994.447 378.582L1005.14 381.439C1011.7 383.236 1016.48 386.2 1019.49 390.333C1022.5 394.465 1024 399.747 1024 406.18C1024 409.126 1023.7 411.893 1023.1 414.48C1022.53 417.032 1021.54 419.493 1020.13 421.865C1018.76 424.236 1017.03 426.267 1014.94 427.955C1012.85 429.644 1010.2 430.974 1006.99 431.944C1003.81 432.95 1000.22 433.453 996.208 433.453C992.743 433.453 989.407 433.13 986.199 432.483C983.021 431.836 980.057 430.848 977.307 429.519C974.587 428.189 972.396 426.356 970.735 424.021C969.103 421.649 968.287 418.936 968.287 415.882C968.287 413.187 969.06 410.995 970.606 409.306C972.181 407.581 974.086 406.719 976.32 406.719C977.665 406.719 978.925 407.024 980.099 407.635C981.274 408.246 982.333 408.982 983.278 409.845C984.223 410.707 985.211 411.57 986.242 412.432C987.302 413.294 988.619 414.031 990.194 414.642C991.769 415.253 993.53 415.558 995.478 415.558C1002.69 415.558 1006.3 412.917 1006.3 407.635C1006.3 405.551 1005.72 403.862 1004.54 402.568C1003.4 401.275 1001.32 400.233 998.313 399.442L987.488 396.585C981.274 394.932 976.649 392.094 973.613 388.069C970.606 384.044 969.103 378.636 969.103 371.845Z" fill="#F9CEBA" fill-opacity="0.25"/>
<path d="M538.526 538.5V477.485C538.526 473.568 539.643 470.19 541.877 467.352C544.11 464.513 546.802 463.093 549.952 463.093C551.957 463.093 553.818 463.722 555.536 464.98C557.283 466.238 558.672 467.927 559.703 470.047L577.315 506.699C578.346 508.819 579.606 511.981 581.095 516.186H581.525V472.742C581.525 470.083 582.269 467.819 583.758 465.95C585.276 464.046 587.109 463.093 589.257 463.093C591.347 463.093 593.137 464.046 594.626 465.95C596.144 467.819 596.903 470.083 596.903 472.742V534.781C596.903 538.482 595.857 541.645 593.767 544.268C591.676 546.891 589.156 548.203 586.207 548.203C584.259 548.203 582.47 547.628 580.837 546.478C579.205 545.292 577.916 543.711 576.971 541.734L558.457 503.519C556.625 499.746 555.307 496.512 554.506 493.817H554.076V538.5C554.076 541.159 553.317 543.441 551.799 545.346C550.282 547.25 548.463 548.203 546.344 548.203C544.196 548.203 542.349 547.25 540.803 545.346C539.285 543.441 538.526 541.159 538.526 538.5Z" fill="#F9CEBA" fill-opacity="0.25"/>
<path d="M614.574 537.961V473.388C614.574 470.334 615.204 468.016 616.464 466.435C617.753 464.818 619.615 464.01 622.049 464.01H654.394C656.256 464.01 657.845 464.854 659.162 466.543C660.508 468.232 661.181 470.262 661.181 472.634C661.181 474.934 660.508 476.928 659.162 478.617C657.845 480.27 656.256 481.096 654.394 481.096H631.284V497.32H650.356C652.16 497.32 653.707 498.147 654.996 499.8C656.313 501.417 656.971 503.357 656.971 505.621C656.971 507.921 656.313 509.897 654.996 511.55C653.707 513.203 652.16 514.029 650.356 514.029H631.284V530.254H656.155C658.017 530.254 659.606 531.098 660.923 532.787C662.269 534.44 662.942 536.416 662.942 538.716C662.942 541.088 662.269 543.118 660.923 544.807C659.606 546.496 658.017 547.34 656.155 547.34H622.049C619.615 547.34 617.753 546.55 616.464 544.969C615.204 543.351 614.574 541.016 614.574 537.961Z" fill="#F9CEBA" fill-opacity="0.25"/>
<path d="M673.441 473.388C673.441 470.55 674.228 468.124 675.803 466.112C677.378 464.1 679.283 463.093 681.516 463.093C683.492 463.093 685.225 463.866 686.714 465.411C688.203 466.92 689.148 468.843 689.549 471.179L698.398 523.839L709.137 471.717C709.652 469.238 710.726 467.19 712.358 465.573C714.019 463.92 715.909 463.093 718.028 463.093C720.119 463.093 721.98 463.92 723.613 465.573C725.245 467.226 726.319 469.274 726.834 471.717L737.487 523.408L746.465 470.639C746.808 468.519 747.682 466.741 749.085 465.303C750.488 463.83 752.078 463.093 753.853 463.093C755.944 463.093 757.719 464.028 759.18 465.896C760.669 467.729 761.413 469.975 761.413 472.634C761.413 473.137 761.356 473.82 761.242 474.682L750.245 535.859C749.615 539.417 748.14 542.363 745.821 544.699C743.501 547.035 740.838 548.203 737.831 548.203C734.91 548.203 732.304 547.089 730.013 544.861C727.722 542.633 726.218 539.776 725.503 536.29L717.255 495.326L708.965 536.29C708.249 539.776 706.76 542.633 704.497 544.861C702.235 547.089 699.643 548.203 696.722 548.203C693.773 548.203 691.153 547.035 688.862 544.699C686.599 542.363 685.153 539.417 684.523 535.859L673.612 475.598C673.498 474.592 673.441 473.856 673.441 473.388Z" fill="#F9CEBA" fill-opacity="0.25"/>
<path d="M534.273 654.382C534.273 653.519 534.431 652.495 534.746 651.309L551.456 590.563C552.401 587.114 554.076 584.311 556.482 582.155C558.887 579.963 561.608 578.867 564.643 578.867C567.65 578.867 570.342 579.963 572.719 582.155C575.124 584.311 576.799 587.114 577.744 590.563L594.282 650.662C594.569 651.848 594.712 652.944 594.712 653.95C594.712 656.681 593.924 659.035 592.349 661.011C590.774 662.988 588.899 663.976 586.722 663.976C584.947 663.976 583.357 663.329 581.954 662.035C580.58 660.742 579.62 659.071 579.076 657.023L576.155 645.434H552.229L549.351 657.238C548.864 659.251 547.933 660.886 546.559 662.143C545.213 663.365 543.666 663.976 541.92 663.976C539.829 663.976 538.025 663.042 536.507 661.173C535.018 659.304 534.273 657.041 534.273 654.382ZM556.353 629.102H572.031L567.822 612.231C566.762 608.027 565.731 603.356 564.729 598.217H563.655C562.538 603.895 561.522 608.566 560.605 612.231L556.353 629.102Z" fill="#F9CEBA" fill-opacity="0.25"/>
<path d="M608.131 653.411V589.162C608.131 586.107 608.761 583.79 610.021 582.209C611.31 580.592 613.171 579.783 615.605 579.783H637.126C644.772 579.783 650.772 582.011 655.124 586.467C659.506 590.923 661.697 597.193 661.697 605.278C661.697 610.668 660.666 615.375 658.604 619.4C656.542 623.389 653.635 626.551 649.884 628.887V629.102L658.174 649.099C658.804 650.501 659.119 652.082 659.119 653.843C659.119 656.645 658.317 659.035 656.714 661.011C655.139 662.988 653.22 663.976 650.958 663.976C649.411 663.976 647.979 663.473 646.662 662.467C645.374 661.461 644.4 660.131 643.741 658.478L633.904 634.654H625.013V653.411C625.013 656.358 624.182 658.855 622.521 660.904C620.889 662.952 618.899 663.976 616.55 663.976C614.202 663.976 612.212 662.952 610.58 660.904C608.947 658.855 608.131 656.358 608.131 653.411ZM625.013 617.837H633.518C635.064 617.837 636.439 617.675 637.642 617.352C638.844 617.028 639.975 616.489 641.035 615.735C642.095 614.944 642.911 613.794 643.483 612.285C644.056 610.74 644.343 608.871 644.343 606.68C644.343 604.416 644.056 602.511 643.483 600.966C642.911 599.421 642.095 598.271 641.035 597.516C639.975 596.726 638.844 596.169 637.642 595.845C636.467 595.522 635.093 595.36 633.518 595.36H625.013V617.837Z" fill="#F9CEBA" fill-opacity="0.25"/>
<path d="M676.104 653.411V589.162C676.104 586.107 676.734 583.79 677.994 582.209C679.282 580.592 681.144 579.783 683.578 579.783H705.099C712.745 579.783 718.744 582.011 723.097 586.467C727.479 590.923 729.669 597.193 729.669 605.278C729.669 610.668 728.638 615.375 726.576 619.4C724.515 623.389 721.608 626.551 717.857 628.887V629.102L726.147 649.099C726.777 650.501 727.092 652.082 727.092 653.843C727.092 656.645 726.29 659.035 724.686 661.011C723.111 662.988 721.193 663.976 718.93 663.976C717.384 663.976 715.952 663.473 714.635 662.467C713.346 661.461 712.373 660.131 711.714 658.478L701.877 634.654H692.985V653.411C692.985 656.358 692.155 658.855 690.494 660.904C688.862 662.952 686.871 663.976 684.523 663.976C682.175 663.976 680.185 662.952 678.552 660.904C676.92 658.855 676.104 656.358 676.104 653.411ZM692.985 617.837H701.49C703.037 617.837 704.411 617.675 705.614 617.352C706.817 617.028 707.948 616.489 709.008 615.735C710.067 614.944 710.883 613.794 711.456 612.285C712.029 610.74 712.315 608.871 712.315 606.68C712.315 604.416 712.029 602.511 711.456 600.966C710.883 599.421 710.067 598.271 709.008 597.516C707.948 596.726 706.817 596.169 705.614 595.845C704.44 595.522 703.066 595.36 701.49 595.36H692.985V617.837Z" fill="#F9CEBA" fill-opacity="0.25"/>
<path d="M744.077 653.411V589.485C744.077 586.539 744.893 584.041 746.525 581.993C748.157 579.909 750.147 578.867 752.496 578.867C754.844 578.867 756.834 579.909 758.466 581.993C760.127 584.041 760.958 586.539 760.958 589.485V653.411C760.958 656.358 760.127 658.855 758.466 660.904C756.834 662.952 754.844 663.976 752.496 663.976C750.147 663.976 748.157 662.952 746.525 660.904C744.893 658.855 744.077 656.358 744.077 653.411Z" fill="#F9CEBA" fill-opacity="0.25"/>
<path d="M775.709 589.162C775.709 586.359 776.525 583.951 778.157 581.939C779.79 579.891 781.737 578.867 783.999 578.867C785.832 578.867 787.464 579.567 788.896 580.969C790.357 582.334 791.33 584.077 791.817 586.197L802.298 629.533C802.986 632.264 803.659 635.552 804.317 639.397C804.374 639.721 804.475 640.367 804.618 641.338C804.79 642.272 804.919 642.973 805.005 643.44H805.348C805.405 643.116 805.649 641.769 806.078 639.397C806.737 635.552 807.41 632.264 808.097 629.533L818.621 585.712C819.108 583.7 820.025 582.065 821.371 580.807C822.716 579.514 824.234 578.867 825.924 578.867C828.072 578.867 829.904 579.819 831.422 581.724C832.94 583.592 833.699 585.856 833.699 588.515C833.699 589.521 833.541 590.545 833.226 591.587L816.989 652.872C816.159 656.142 814.598 658.819 812.307 660.904C810.016 662.952 807.439 663.976 804.575 663.976C801.769 663.976 799.234 662.952 796.972 660.904C794.71 658.819 793.135 656.142 792.247 652.872L776.138 592.45C775.852 591.264 775.709 590.168 775.709 589.162Z" fill="#F9CEBA" fill-opacity="0.25"/>
<path d="M837.024 654.382C837.024 653.519 837.181 652.495 837.496 651.309L854.206 590.563C855.151 587.114 856.826 584.311 859.232 582.155C861.637 579.963 864.357 578.867 867.393 578.867C870.4 578.867 873.092 579.963 875.469 582.155C877.874 584.311 879.549 587.114 880.494 590.563L897.032 650.662C897.319 651.848 897.462 652.944 897.462 653.95C897.462 656.681 896.674 659.035 895.099 661.011C893.524 662.988 891.649 663.976 889.472 663.976C887.697 663.976 886.107 663.329 884.704 662.035C883.329 660.742 882.37 659.071 881.826 657.023L878.905 645.434H854.979L852.101 657.238C851.614 659.251 850.683 660.886 849.309 662.143C847.963 663.365 846.416 663.976 844.67 663.976C842.579 663.976 840.775 663.042 839.257 661.173C837.768 659.304 837.024 657.041 837.024 654.382ZM859.103 629.102H874.781L870.572 612.231C869.512 608.027 868.481 603.356 867.479 598.217H866.405C865.288 603.895 864.272 608.566 863.355 612.231L859.103 629.102Z" fill="#F9CEBA" fill-opacity="0.25"/>
<path d="M910.881 653.735V589.485C910.881 586.539 911.697 584.041 913.33 581.993C914.962 579.909 916.952 578.867 919.3 578.867C921.649 578.867 923.639 579.909 925.271 581.993C926.932 584.041 927.763 586.539 927.763 589.485V645.757H950.959C952.849 645.757 954.467 646.602 955.812 648.291C957.158 649.98 957.831 652.01 957.831 654.382C957.831 656.789 957.158 658.855 955.812 660.58C954.467 662.269 952.849 663.113 950.959 663.113H918.355C915.921 663.113 914.06 662.323 912.771 660.742C911.511 659.125 910.881 656.789 910.881 653.735Z" fill="#F9CEBA" fill-opacity="0.25"/>
<path d="M969.103 603.392C969.103 595.953 971.451 589.827 976.148 585.011C980.873 580.196 987.345 577.789 995.564 577.789C998.17 577.789 1000.86 578.13 1003.64 578.813C1006.45 579.496 1009.12 580.502 1011.67 581.831C1014.25 583.161 1016.35 584.976 1017.99 587.275C1019.65 589.575 1020.48 592.144 1020.48 594.983C1020.48 597.606 1019.73 599.798 1018.24 601.559C1016.75 603.284 1014.95 604.146 1012.83 604.146C1011.49 604.146 1010.27 603.805 1009.18 603.122C1008.09 602.439 1007.13 601.613 1006.3 600.643C1005.47 599.636 1004.6 598.648 1003.68 597.678C1002.77 596.672 1001.58 595.827 1000.12 595.145C998.685 594.462 997.024 594.121 995.134 594.121C992.356 594.121 990.151 594.821 988.519 596.223C986.886 597.588 986.07 599.277 986.07 601.289C986.07 603.517 986.672 605.35 987.875 606.787C989.077 608.189 991.268 609.303 994.447 610.129L1005.14 612.986C1011.7 614.783 1016.48 617.747 1019.49 621.88C1022.5 626.012 1024 631.294 1024 637.726C1024 640.673 1023.7 643.44 1023.1 646.027C1022.53 648.578 1021.54 651.04 1020.13 653.411C1018.76 655.783 1017.03 657.813 1014.94 659.502C1012.85 661.191 1010.2 662.521 1006.99 663.491C1003.81 664.497 1000.22 665 996.208 665C992.743 665 989.407 664.677 986.199 664.03C983.021 663.383 980.057 662.395 977.307 661.065C974.587 659.736 972.396 657.903 970.735 655.567C969.103 653.196 968.287 650.483 968.287 647.428C968.287 644.733 969.06 642.541 970.606 640.852C972.181 639.128 974.086 638.265 976.32 638.265C977.665 638.265 978.925 638.571 980.099 639.182C981.274 639.792 982.333 640.529 983.278 641.391C984.223 642.254 985.211 643.116 986.242 643.979C987.302 644.841 988.619 645.578 990.194 646.189C991.769 646.8 993.53 647.105 995.478 647.105C1002.69 647.105 1006.3 644.464 1006.3 639.182C1006.3 637.097 1005.72 635.409 1004.54 634.115C1003.4 632.821 1001.32 631.779 998.313 630.989L987.488 628.132C981.274 626.479 976.649 623.64 973.613 619.616C970.606 615.591 969.103 610.183 969.103 603.392Z" fill="#F9CEBA" fill-opacity="0.25"/>
</svg>
