<svg width="320" height="568" viewBox="0 0 320 568" fill="none" xmlns="http://www.w3.org/2000/svg">
<rect width="320" height="568" fill="white"/>
<path d="M278.543 508.275H0V568H278.543V508.275Z" fill="white"/>
<path d="M0 0C0 0 59.2715 21.3195 137.004 21.3195C214.737 21.3195 278.543 0 278.543 0V540.339C278.543 540.339 257.68 586.145 137.004 559.866C16.3281 533.588 0 540.339 0 540.339V0Z" fill="white"/>
<mask id="mask0_2892_1179" style="mask-type:alpha" maskUnits="userSpaceOnUse" x="0" y="0" width="320" height="514">
<path d="M0 0C0 0 70.3255 32.8539 159.628 32.8539C248.93 32.8539 320 0 320 0V513.78H0V0Z" fill="white"/>
</mask>
<g mask="url(#mask0_2892_1179)">
<path d="M7.30273 95.3294V51.4801C7.30273 49.406 7.87336 47.8321 9.01454 46.7584C10.1817 45.6604 11.8675 45.1113 14.0721 45.1113H43.3671C45.053 45.1113 46.4924 45.6848 47.6854 46.8317C48.9045 47.9785 49.514 49.3572 49.514 50.9677C49.514 52.5294 48.9045 53.8836 47.6854 55.0305C46.4924 56.153 45.053 56.7142 43.3671 56.7142H22.4365V67.7314H39.7101C41.3441 67.7314 42.7446 68.2927 43.9118 69.4153C45.1048 70.5135 45.7014 71.8311 45.7014 73.3681C45.7014 74.9301 45.1048 76.2721 43.9118 77.3947C42.7446 78.5167 41.3441 79.078 39.7101 79.078H22.4365V90.0955H44.9621C46.648 90.0955 48.0875 90.669 49.2806 91.8159C50.4996 92.9385 51.109 94.2805 51.109 95.8419C51.109 97.4526 50.4996 98.8312 49.2806 99.9782C48.0875 101.125 46.648 101.699 44.9621 101.699H14.0721C11.8675 101.699 10.1817 101.162 9.01454 100.088C7.87336 98.9897 7.30273 97.4039 7.30273 95.3294Z" fill="#F9CEBA" fill-opacity="0.25"/>
<path d="M60.6172 51.4803C60.6172 49.5526 61.3305 47.9055 62.7569 46.539C64.1833 45.1725 65.9083 44.4893 67.9313 44.4893C69.7211 44.4893 71.29 45.0139 72.6387 46.0631C73.9874 47.088 74.8431 48.3935 75.2065 49.9796L83.2207 85.74L92.947 50.3456C93.4134 48.6619 94.3864 47.2711 95.8646 46.173C97.3687 45.0505 99.0808 44.4893 101 44.4893C102.893 44.4893 104.579 45.0505 106.057 46.173C107.536 47.2954 108.508 48.6863 108.976 50.3456L118.623 85.4474L126.754 49.6136C127.066 48.1739 127.857 46.966 129.128 45.9899C130.399 44.9895 131.838 44.4893 133.446 44.4893C135.339 44.4893 136.948 45.1237 138.27 46.3925C139.619 47.637 140.293 49.1622 140.293 50.9679C140.293 51.3095 140.242 51.7731 140.138 52.3587L130.178 93.9022C129.608 96.318 128.272 98.3188 126.171 99.9052C124.07 101.491 121.658 102.284 118.935 102.284C116.29 102.284 113.929 101.528 111.854 100.015C109.779 98.5017 108.418 96.5618 107.769 94.1954L100.3 66.3774L92.7909 94.1954C92.1425 96.5618 90.7938 98.5017 88.7449 100.015C86.696 101.528 84.3491 102.284 81.7036 102.284C79.0322 102.284 76.6588 101.491 74.584 99.9052C72.5351 98.3188 71.2253 96.318 70.6546 93.9022L60.7728 52.981C60.6691 52.2977 60.6172 51.7975 60.6172 51.4803Z" fill="#F9CEBA" fill-opacity="0.25"/>
<path d="M1.46716 173.728V130.098C1.46716 128.024 2.03776 126.45 3.17896 125.377C4.34609 124.279 6.03192 123.729 8.23649 123.729H27.7276C34.6526 123.729 40.0862 125.242 44.0285 128.268C47.9968 131.294 49.9809 135.552 49.9809 141.043C49.9809 144.703 49.0472 147.899 47.1798 150.632C45.3124 153.34 42.6798 155.488 39.2822 157.074V157.221L46.7907 170.8C47.3614 171.752 47.6466 172.826 47.6466 174.021C47.6466 175.925 46.9204 177.547 45.468 178.889C44.0415 180.231 42.3037 180.902 40.2548 180.902C38.8542 180.902 37.5574 180.561 36.3644 179.877C35.1972 179.194 34.3154 178.291 33.7189 177.169L24.8098 160.991H16.7566V173.728C16.7566 175.729 16.0044 177.425 14.5001 178.816C13.0217 180.206 11.2192 180.902 9.09239 180.902C6.96562 180.902 5.16307 180.206 3.68471 178.816C2.20634 177.425 1.46716 175.729 1.46716 173.728ZM16.7566 149.57H24.4596C25.8602 149.57 27.1052 149.461 28.1945 149.241C29.2837 149.021 30.3083 148.656 31.2679 148.143C32.2276 147.606 32.9667 146.826 33.4855 145.8C34.0041 144.752 34.2635 143.483 34.2635 141.994C34.2635 140.457 34.0041 139.164 33.4855 138.114C32.9667 137.065 32.2276 136.284 31.2679 135.771C30.3083 135.235 29.2837 134.857 28.1945 134.637C27.1311 134.417 25.8861 134.308 24.4596 134.308H16.7566V149.57Z" fill="#F9CEBA" fill-opacity="0.25"/>
<path d="M63.0289 173.728V130.098C63.0289 128.024 63.5996 126.45 64.741 125.377C65.9083 124.279 67.5938 123.729 69.7988 123.729H89.2897C96.2144 123.729 101.649 125.242 105.591 128.268C109.559 131.294 111.543 135.552 111.543 141.043C111.543 144.703 110.609 147.899 108.742 150.632C106.874 153.34 104.242 155.488 100.844 157.074V157.221L108.353 170.8C108.924 171.752 109.209 172.826 109.209 174.021C109.209 175.925 108.483 177.547 107.03 178.889C105.604 180.231 103.866 180.902 101.817 180.902C100.416 180.902 99.1196 180.561 97.9264 179.877C96.7591 179.194 95.8775 178.291 95.2809 177.169L86.3721 160.991H78.3183V173.728C78.3183 175.729 77.5663 177.425 76.0621 178.816C74.5839 180.206 72.7812 180.902 70.6545 180.902C68.5279 180.902 66.7251 180.206 65.2469 178.816C63.7687 177.425 63.0289 175.729 63.0289 173.728ZM78.3183 149.57H86.0216C87.4221 149.57 88.6671 149.461 89.7567 149.241C90.8456 149.021 91.8704 148.656 92.8297 148.143C93.7897 147.606 94.5288 146.826 95.0477 145.8C95.5659 144.752 95.8257 143.483 95.8257 141.994C95.8257 140.457 95.5659 139.164 95.0477 138.114C94.5288 137.065 93.7897 136.284 92.8297 135.771C91.8704 135.235 90.8456 134.857 89.7567 134.637C88.6931 134.417 87.448 134.308 86.0216 134.308H78.3183V149.57Z" fill="#F9CEBA" fill-opacity="0.25"/>
<path d="M124.591 173.728V130.318C124.591 128.317 125.331 126.621 126.809 125.23C128.288 123.815 130.09 123.107 132.217 123.107C134.344 123.107 136.146 123.815 137.625 125.23C139.129 126.621 139.881 128.317 139.881 130.318V173.728C139.881 175.729 139.129 177.425 137.625 178.816C136.146 180.207 134.344 180.903 132.217 180.903C130.09 180.903 128.288 180.207 126.809 178.816C125.331 177.425 124.591 175.729 124.591 173.728Z" fill="#F9CEBA" fill-opacity="0.25"/>
<path d="M153.24 130.098C153.24 128.195 153.98 126.561 155.458 125.194C156.937 123.803 158.701 123.107 160.749 123.107C162.409 123.107 163.887 123.583 165.184 124.535C166.507 125.462 167.389 126.646 167.83 128.085L177.323 157.513C177.945 159.368 178.554 161.601 179.151 164.212C179.203 164.431 179.294 164.871 179.423 165.529C179.579 166.164 179.696 166.64 179.773 166.957H180.085C180.137 166.737 180.357 165.822 180.746 164.212C181.343 161.601 181.952 159.368 182.575 157.513L192.106 127.756C192.547 126.389 193.377 125.279 194.596 124.425C195.815 123.547 197.19 123.107 198.72 123.107C200.665 123.107 202.325 123.754 203.699 125.047C205.074 126.316 205.761 127.854 205.761 129.659C205.761 130.343 205.619 131.038 205.334 131.746L190.628 173.362C189.876 175.583 188.462 177.401 186.387 178.816C184.312 180.207 181.978 180.903 179.385 180.903C176.843 180.903 174.547 180.207 172.498 178.816C170.449 177.401 169.023 175.583 168.219 173.362L153.63 132.331C153.371 131.526 153.24 130.782 153.24 130.098Z" fill="#F9CEBA" fill-opacity="0.25"/>
<path d="M208.773 174.387C208.773 173.801 208.915 173.106 209.201 172.301L224.334 131.05C225.191 128.708 226.708 126.804 228.886 125.34C231.065 123.852 233.529 123.107 236.278 123.107C239.001 123.107 241.44 123.852 243.592 125.34C245.771 126.804 247.288 128.708 248.144 131.05L263.122 171.862C263.382 172.667 263.511 173.411 263.511 174.095C263.511 175.949 262.798 177.547 261.371 178.889C259.945 180.231 258.246 180.903 256.275 180.903C254.667 180.903 253.228 180.463 251.957 179.584C250.712 178.706 249.843 177.571 249.35 176.181L246.705 168.311H225.035L222.429 176.327C221.988 177.693 221.145 178.804 219.9 179.658C218.681 180.488 217.28 180.903 215.698 180.903C213.805 180.903 212.171 180.268 210.796 178.999C209.447 177.73 208.773 176.193 208.773 174.387ZM228.77 157.221H242.97L239.157 145.764C238.197 142.909 237.264 139.737 236.356 136.248H235.383C234.372 140.103 233.451 143.275 232.621 145.764L228.77 157.221Z" fill="#F9CEBA" fill-opacity="0.25"/>
<path d="M7.30273 252.566V208.716C7.30273 206.642 7.87336 205.068 9.01454 203.995C10.1817 202.897 11.8675 202.348 14.0721 202.348H43.3671C45.053 202.348 46.4924 202.921 47.6854 204.068C48.9045 205.215 49.514 206.594 49.514 208.204C49.514 209.766 48.9045 211.12 47.6854 212.267C46.4924 213.39 45.053 213.951 43.3671 213.951H22.4365V224.968H39.7101C41.3441 224.968 42.7446 225.529 43.9118 226.652C45.1048 227.75 45.7014 229.067 45.7014 230.604C45.7014 232.166 45.1048 233.508 43.9118 234.631C42.7446 235.753 41.3441 236.314 39.7101 236.314H22.4365V247.332H44.9621C46.648 247.332 48.0875 247.905 49.2806 249.052C50.4996 250.175 51.109 251.517 51.109 253.078C51.109 254.689 50.4996 256.068 49.2806 257.215C48.0875 258.361 46.648 258.935 44.9621 258.935H14.0721C11.8675 258.935 10.1817 258.398 9.01454 257.324C7.87336 256.226 7.30273 254.64 7.30273 252.566Z" fill="#F9CEBA" fill-opacity="0.25"/>
<path d="M60.6172 208.717C60.6172 206.789 61.3305 205.142 62.7569 203.775C64.1833 202.409 65.9083 201.726 67.9313 201.726C69.7211 201.726 71.29 202.25 72.6387 203.3C73.9874 204.324 74.8431 205.63 75.2065 207.216L83.2207 242.976L92.947 207.582C93.4134 205.898 94.3864 204.507 95.8646 203.409C97.3687 202.287 99.0808 201.726 101 201.726C102.893 201.726 104.579 202.287 106.057 203.409C107.536 204.531 108.508 205.923 108.976 207.582L118.623 242.684L126.754 206.85C127.066 205.41 127.857 204.202 129.128 203.226C130.399 202.226 131.838 201.726 133.446 201.726C135.339 201.726 136.948 202.36 138.27 203.629C139.619 204.873 140.293 206.398 140.293 208.204C140.293 208.546 140.242 209.01 140.138 209.595L130.178 251.139C129.608 253.554 128.272 255.555 126.171 257.142C124.07 258.727 121.658 259.521 118.935 259.521C116.29 259.521 113.929 258.764 111.854 257.251C109.779 255.738 108.418 253.798 107.769 251.432L100.3 223.614L92.7909 251.432C92.1425 253.798 90.7938 255.738 88.7449 257.251C86.696 258.764 84.3491 259.521 81.7036 259.521C79.0322 259.521 76.6588 258.727 74.584 257.142C72.5351 255.555 71.2253 253.554 70.6546 251.139L60.7728 210.218C60.6691 209.534 60.6172 209.034 60.6172 208.717Z" fill="#F9CEBA" fill-opacity="0.25"/>
<path d="M1.46716 330.964V287.334C1.46716 285.261 2.03776 283.686 3.17896 282.613C4.34609 281.515 6.03192 280.966 8.23649 280.966H27.7276C34.6526 280.966 40.0862 282.478 44.0285 285.504C47.9968 288.53 49.9809 292.788 49.9809 298.279C49.9809 301.939 49.0472 305.136 47.1798 307.868C45.3124 310.577 42.6798 312.724 39.2822 314.31V314.457L46.7907 328.036C47.3614 328.988 47.6466 330.062 47.6466 331.258C47.6466 333.161 46.9204 334.783 45.468 336.125C44.0415 337.467 42.3037 338.139 40.2548 338.139C38.8542 338.139 37.5574 337.797 36.3644 337.114C35.1972 336.431 34.3154 335.527 33.7189 334.405L24.8098 318.227H16.7566V330.964C16.7566 332.965 16.0044 334.661 14.5001 336.052C13.0217 337.443 11.2192 338.139 9.09239 338.139C6.96562 338.139 5.16307 337.443 3.68471 336.052C2.20634 334.661 1.46716 332.965 1.46716 330.964ZM16.7566 306.807H24.4596C25.8602 306.807 27.1052 306.697 28.1945 306.478C29.2837 306.258 30.3083 305.892 31.2679 305.379C32.2276 304.843 32.9667 304.062 33.4855 303.037C34.0041 301.988 34.2635 300.719 34.2635 299.23C34.2635 297.693 34.0041 296.4 33.4855 295.35C32.9667 294.301 32.2276 293.52 31.2679 293.008C30.3083 292.471 29.2837 292.093 28.1945 291.873C27.1311 291.654 25.8861 291.544 24.4596 291.544H16.7566V306.807Z" fill="#F9CEBA" fill-opacity="0.25"/>
<path d="M63.0289 330.964V287.334C63.0289 285.261 63.5996 283.686 64.741 282.613C65.9083 281.515 67.5938 280.966 69.7988 280.966H89.2897C96.2144 280.966 101.649 282.478 105.591 285.504C109.559 288.53 111.543 292.788 111.543 298.279C111.543 301.939 110.609 305.136 108.742 307.868C106.874 310.577 104.242 312.724 100.844 314.31V314.457L108.353 328.036C108.924 328.988 109.209 330.062 109.209 331.258C109.209 333.161 108.483 334.783 107.03 336.125C105.604 337.467 103.866 338.139 101.817 338.139C100.416 338.139 99.1196 337.797 97.9264 337.114C96.7591 336.431 95.8775 335.527 95.2809 334.405L86.3721 318.227H78.3183V330.964C78.3183 332.965 77.5663 334.661 76.0621 336.052C74.5839 337.443 72.7812 338.139 70.6545 338.139C68.5279 338.139 66.7251 337.443 65.2469 336.052C63.7687 334.661 63.0289 332.965 63.0289 330.964ZM78.3183 306.807H86.0216C87.4221 306.807 88.6671 306.697 89.7567 306.478C90.8456 306.258 91.8704 305.892 92.8297 305.379C93.7897 304.843 94.5288 304.062 95.0477 303.037C95.5659 301.988 95.8257 300.719 95.8257 299.23C95.8257 297.693 95.5659 296.4 95.0477 295.35C94.5288 294.301 93.7897 293.52 92.8297 293.008C91.8704 292.471 90.8456 292.093 89.7567 291.873C88.6931 291.654 87.448 291.544 86.0216 291.544H78.3183V306.807Z" fill="#F9CEBA" fill-opacity="0.25"/>
<path d="M124.591 330.964V287.554C124.591 285.553 125.331 283.857 126.809 282.466C128.288 281.051 130.09 280.343 132.217 280.343C134.344 280.343 136.146 281.051 137.625 282.466C139.129 283.857 139.881 285.553 139.881 287.554V330.964C139.881 332.965 139.129 334.661 137.625 336.052C136.146 337.442 134.344 338.138 132.217 338.138C130.09 338.138 128.288 337.442 126.809 336.052C125.331 334.661 124.591 332.965 124.591 330.964Z" fill="#F9CEBA" fill-opacity="0.25"/>
<path d="M153.24 287.334C153.24 285.431 153.98 283.796 155.458 282.429C156.937 281.039 158.701 280.343 160.749 280.343C162.409 280.343 163.887 280.819 165.184 281.771C166.507 282.698 167.389 283.882 167.83 285.321L177.323 314.749C177.945 316.604 178.554 318.837 179.151 321.448C179.203 321.667 179.294 322.106 179.423 322.765C179.579 323.4 179.696 323.876 179.773 324.193H180.085C180.137 323.973 180.357 323.058 180.746 321.448C181.343 318.837 181.952 316.604 182.575 314.749L192.106 284.991C192.547 283.625 193.377 282.515 194.596 281.661C195.815 280.783 197.19 280.343 198.72 280.343C200.665 280.343 202.325 280.99 203.699 282.283C205.074 283.552 205.761 285.09 205.761 286.895C205.761 287.579 205.619 288.274 205.334 288.982L190.628 330.598C189.876 332.819 188.462 334.637 186.387 336.052C184.312 337.442 181.978 338.138 179.385 338.138C176.843 338.138 174.547 337.442 172.498 336.052C170.449 334.637 169.023 332.819 168.219 330.598L153.63 289.567C153.371 288.761 153.24 288.017 153.24 287.334Z" fill="#F9CEBA" fill-opacity="0.25"/>
<path d="M208.773 331.623C208.773 331.037 208.915 330.342 209.201 329.537L224.334 288.286C225.191 285.943 226.708 284.04 228.886 282.576C231.065 281.087 233.529 280.343 236.278 280.343C239.001 280.343 241.44 281.087 243.592 282.576C245.771 284.04 247.288 285.943 248.144 288.286L263.122 329.097C263.382 329.902 263.511 330.647 263.511 331.33C263.511 333.185 262.798 334.783 261.371 336.125C259.945 337.467 258.246 338.138 256.275 338.138C254.667 338.138 253.228 337.699 251.957 336.82C250.712 335.942 249.843 334.807 249.35 333.417L246.705 325.547H225.035L222.429 333.563C221.988 334.929 221.145 336.04 219.9 336.894C218.681 337.723 217.28 338.138 215.698 338.138C213.805 338.138 212.171 337.504 210.796 336.235C209.447 334.966 208.773 333.429 208.773 331.623ZM228.77 314.457H242.97L239.157 303C238.197 300.145 237.264 296.973 236.356 293.483H235.383C234.372 297.339 233.451 300.511 232.621 303L228.77 314.457Z" fill="#F9CEBA" fill-opacity="0.25"/>
<path d="M7.30273 409.802V365.952C7.30273 363.878 7.87336 362.304 9.01454 361.231C10.1817 360.133 11.8675 359.583 14.0721 359.583H43.3671C45.053 359.583 46.4924 360.157 47.6854 361.304C48.9045 362.451 49.514 363.829 49.514 365.44C49.514 367.002 48.9045 368.356 47.6854 369.503C46.4924 370.625 45.053 371.187 43.3671 371.187H22.4365V382.204H39.7101C41.3441 382.204 42.7446 382.765 43.9118 383.887C45.1048 384.986 45.7014 386.303 45.7014 387.84C45.7014 389.402 45.1048 390.744 43.9118 391.867C42.7446 392.989 41.3441 393.55 39.7101 393.55H22.4365V404.568H44.9621C46.648 404.568 48.0875 405.141 49.2806 406.288C50.4996 407.411 51.109 408.753 51.109 410.314C51.109 411.925 50.4996 413.303 49.2806 414.45C48.0875 415.597 46.648 416.171 44.9621 416.171H14.0721C11.8675 416.171 10.1817 415.634 9.01454 414.56C7.87336 413.462 7.30273 411.876 7.30273 409.802Z" fill="#F9CEBA" fill-opacity="0.25"/>
<path d="M60.6172 365.952C60.6172 364.025 61.3305 362.377 62.7569 361.011C64.1833 359.645 65.9083 358.961 67.9313 358.961C69.7211 358.961 71.29 359.486 72.6387 360.536C73.9874 361.56 74.8431 362.865 75.2065 364.452L83.2207 400.212L92.947 364.818C93.4134 363.134 94.3864 361.743 95.8646 360.645C97.3687 359.523 99.0808 358.961 101 358.961C102.893 358.961 104.579 359.523 106.057 360.645C107.536 361.767 108.508 363.159 108.976 364.818L118.623 399.92L126.754 364.086C127.066 362.646 127.857 361.438 129.128 360.462C130.399 359.462 131.838 358.961 133.446 358.961C135.339 358.961 136.948 359.596 138.27 360.865C139.619 362.109 140.293 363.634 140.293 365.44C140.293 365.782 140.242 366.245 140.138 366.831L130.178 408.374C129.608 410.79 128.272 412.791 126.171 414.377C124.07 415.963 121.658 416.757 118.935 416.757C116.29 416.757 113.929 416 111.854 414.487C109.779 412.974 108.418 411.034 107.769 408.668L100.3 380.85L92.7909 408.668C92.1425 411.034 90.7938 412.974 88.7449 414.487C86.696 416 84.3491 416.757 81.7036 416.757C79.0322 416.757 76.6588 415.963 74.584 414.377C72.5351 412.791 71.2253 410.79 70.6546 408.374L60.7728 367.453C60.6691 366.77 60.6172 366.27 60.6172 365.952Z" fill="#F9CEBA" fill-opacity="0.25"/>
<path d="M1.46716 488.2V444.57C1.46716 442.496 2.03776 440.922 3.17896 439.849C4.34609 438.751 6.03192 438.202 8.23649 438.202H27.7276C34.6526 438.202 40.0862 439.714 44.0285 442.74C47.9968 445.766 49.9809 450.024 49.9809 455.515C49.9809 459.175 49.0472 462.372 47.1798 465.104C45.3124 467.813 42.6798 469.96 39.2822 471.546V471.693L46.7907 485.272C47.3614 486.224 47.6466 487.298 47.6466 488.493C47.6466 490.397 46.9204 492.019 45.468 493.361C44.0415 494.703 42.3037 495.375 40.2548 495.375C38.8542 495.375 37.5574 495.033 36.3644 494.35C35.1972 493.666 34.3154 492.763 33.7189 491.641L24.8098 475.463H16.7566V488.2C16.7566 490.201 16.0044 491.897 14.5001 493.288C13.0217 494.679 11.2192 495.375 9.09239 495.375C6.96562 495.375 5.16307 494.679 3.68471 493.288C2.20634 491.897 1.46716 490.201 1.46716 488.2ZM16.7566 464.043H24.4596C25.8602 464.043 27.1052 463.933 28.1945 463.714C29.2837 463.494 30.3083 463.128 31.2679 462.615C32.2276 462.078 32.9667 461.298 33.4855 460.273C34.0041 459.224 34.2635 457.955 34.2635 456.466C34.2635 454.929 34.0041 453.636 33.4855 452.586C32.9667 451.537 32.2276 450.756 31.2679 450.244C30.3083 449.707 29.2837 449.329 28.1945 449.109C27.1311 448.889 25.8861 448.78 24.4596 448.78H16.7566V464.043Z" fill="#F9CEBA" fill-opacity="0.25"/>
<path d="M63.0289 488.2V444.57C63.0289 442.496 63.5996 440.922 64.741 439.849C65.9083 438.751 67.5938 438.202 69.7988 438.202H89.2897C96.2144 438.202 101.649 439.714 105.591 442.74C109.559 445.766 111.543 450.024 111.543 455.515C111.543 459.175 110.609 462.372 108.742 465.104C106.874 467.813 104.242 469.96 100.844 471.546V471.693L108.353 485.272C108.924 486.224 109.209 487.298 109.209 488.493C109.209 490.397 108.483 492.019 107.03 493.361C105.604 494.703 103.866 495.375 101.817 495.375C100.416 495.375 99.1196 495.033 97.9264 494.35C96.7591 493.666 95.8775 492.763 95.2809 491.641L86.3721 475.463H78.3183V488.2C78.3183 490.201 77.5663 491.897 76.0621 493.288C74.5839 494.679 72.7812 495.375 70.6545 495.375C68.5279 495.375 66.7251 494.679 65.2469 493.288C63.7687 491.897 63.0289 490.201 63.0289 488.2ZM78.3183 464.043H86.0216C87.4221 464.043 88.6671 463.933 89.7567 463.714C90.8456 463.494 91.8704 463.128 92.8297 462.615C93.7897 462.078 94.5288 461.298 95.0477 460.273C95.5659 459.224 95.8257 457.955 95.8257 456.466C95.8257 454.929 95.5659 453.636 95.0477 452.586C94.5288 451.537 93.7897 450.756 92.8297 450.244C91.8704 449.707 90.8456 449.329 89.7567 449.109C88.6931 448.889 87.448 448.78 86.0216 448.78H78.3183V464.043Z" fill="#F9CEBA" fill-opacity="0.25"/>
<path d="M124.591 488.2V444.79C124.591 442.789 125.331 441.093 126.809 439.702C128.288 438.287 130.09 437.579 132.217 437.579C134.344 437.579 136.146 438.287 137.625 439.702C139.129 441.093 139.881 442.789 139.881 444.79V488.2C139.881 490.201 139.129 491.897 137.625 493.288C136.146 494.678 134.344 495.374 132.217 495.374C130.09 495.374 128.288 494.678 126.809 493.288C125.331 491.897 124.591 490.201 124.591 488.2Z" fill="#F9CEBA" fill-opacity="0.25"/>
<path d="M153.24 444.57C153.24 442.667 153.98 441.032 155.458 439.665C156.937 438.274 158.701 437.579 160.749 437.579C162.409 437.579 163.887 438.055 165.184 439.006C166.507 439.934 167.389 441.118 167.83 442.557L177.323 471.985C177.945 473.84 178.554 476.073 179.151 478.684C179.203 478.903 179.294 479.342 179.423 480.001C179.579 480.636 179.696 481.112 179.773 481.428H180.085C180.137 481.209 180.357 480.294 180.746 478.684C181.343 476.073 181.952 473.84 182.575 471.985L192.106 442.227C192.547 440.861 193.377 439.751 194.596 438.897C195.815 438.019 197.19 437.579 198.72 437.579C200.665 437.579 202.325 438.226 203.699 439.519C205.074 440.788 205.761 442.325 205.761 444.131C205.761 444.814 205.619 445.51 205.334 446.217L190.628 487.834C189.876 490.055 188.462 491.872 186.387 493.288C184.312 494.678 181.978 495.374 179.385 495.374C176.843 495.374 174.547 494.678 172.498 493.288C170.449 491.872 169.023 490.055 168.219 487.834L153.63 446.803C153.371 445.997 153.24 445.253 153.24 444.57Z" fill="#F9CEBA" fill-opacity="0.25"/>
<path d="M208.773 488.859C208.773 488.273 208.915 487.578 209.201 486.773L224.334 445.522C225.191 443.179 226.708 441.276 228.886 439.812C231.065 438.323 233.529 437.579 236.278 437.579C239.001 437.579 241.44 438.323 243.592 439.812C245.771 441.276 247.288 443.179 248.144 445.522L263.122 486.333C263.382 487.138 263.511 487.883 263.511 488.566C263.511 490.421 262.798 492.019 261.371 493.361C259.945 494.703 258.246 495.374 256.275 495.374C254.667 495.374 253.228 494.935 251.957 494.056C250.712 493.178 249.843 492.043 249.35 490.652L246.705 482.783H225.035L222.429 490.799C221.988 492.165 221.145 493.275 219.9 494.13C218.681 494.959 217.28 495.374 215.698 495.374C213.805 495.374 212.171 494.74 210.796 493.47C209.447 492.202 208.773 490.665 208.773 488.859ZM228.77 471.693H242.97L239.157 460.236C238.197 457.381 237.264 454.209 236.356 450.719H235.383C234.372 454.575 233.451 457.747 232.621 460.236L228.77 471.693Z" fill="#F9CEBA" fill-opacity="0.25"/>
</g>
</svg>
