<svg width="96" height="57" viewBox="0 0 96 57" fill="none" xmlns="http://www.w3.org/2000/svg">
<path d="M29.0981 19.1833C32.9753 17.8525 32.1058 11.7357 29.3707 10.1953C26.5347 8.59894 20.4483 10.0186 20.7564 14.4526C21.0274 18.3619 27.2494 25.0361 29.2715 27.3971C30.4362 28.7567 32.088 28.4816 32.9164 27.3331C34.1771 25.5864 30.1135 21.5883 29.0981 19.1833ZM28.3399 15.1188C27.2042 16.8999 24.2319 16.0282 24.7385 14.2302C25.391 11.9165 29.1448 13.2457 28.3399 15.1188Z" fill="#E38880"/>
<path d="M44.753 13.2753C46.0822 12.1788 46.4162 13.2873 47.7744 13.3888C50.2603 13.5752 50.0708 10.1937 48.1011 8.7077C47.4228 8.19664 46.0661 7.80634 45.2168 7.87352C40.708 8.23103 40.7161 16.1457 41.5307 19.8687C43.3471 28.1745 51.3912 25.7215 51.1718 22.1641C50.4176 18.7154 48.0205 21.5659 45.9846 20.8604C43.7512 20.0879 43.2713 14.4966 44.753 13.2753Z" fill="#E38880"/>
<path d="M51.9016 9.60507C51.6733 11.9948 51.7064 22.7815 56.9588 22.1665C58.793 21.9514 59.6585 21.062 59.9738 19.5104C61.441 24.5859 57.8832 26.6221 52.9485 26.2254C48.43 25.8623 49.0366 30.3307 53.8043 30.3867C65.39 29.0159 64.0011 24.8386 64.3261 20.0583C64.4407 18.3723 64.4052 15.9234 64.4052 13.1433C64.4052 11.7589 64.7923 10.0873 64.4253 8.7517C63.4244 5.10388 59.6012 6.60347 59.6012 9.40992C59.6012 11.2382 60.1368 16.5816 58.1897 16.3913C57.3081 16.5152 57.0847 15.7802 56.9104 14.9149C56.5507 13.0809 56.7136 11.5677 56.3644 9.56108C55.9417 6.85061 52.1839 7.34008 51.9016 9.60507Z" fill="#E38880"/>
<path d="M73.2793 10.3817C70.6515 9.23478 68.018 13.652 68.9318 16.0729C69.9893 18.873 72.4735 20.4814 75.4224 19.8607C78.8915 18.821 82.3695 16.4896 85.8192 18.817C87.3751 20.0879 87.0347 20.9604 85.6498 22.0817C84.298 23.1167 83.2696 22.7352 81.9742 24.4971C81.0289 26.0159 84.4045 29.1262 88.1559 27.3291C93.1873 24.6658 93.2873 18.5555 88.6535 15.6139C86.4483 14.0919 83.2018 13.6032 80.3046 14.2998C78.076 14.8301 77.626 15.4451 75.2901 15.9138C73.8407 16.2049 73.0389 15.753 72.7752 14.8821C72.5945 14.2862 73.435 13.3473 73.7673 13.049C74.1609 12.6938 75.1256 11.1871 73.2793 10.3817Z" fill="#E38880"/>
<path d="M30.9409 31.4696C30.5336 32.3758 26.9177 41.0678 27.6178 45.1859C28.8212 47.6093 30.7183 46.0681 31.4337 43.3376C32.2621 40.7711 33.1654 37.7783 34.3874 37.995C36.687 38.4029 36.0852 46.5224 39.489 47.1262C43.6292 47.5917 44.7955 36.8058 45.5593 32.6581C45.6844 31.5848 45.5222 30.8954 45.0077 30.3859C44.385 29.7701 42.7686 30.142 42.4887 30.8194C41.3498 33.1396 41.8749 34.5808 40.8884 36.9681C40.3327 38.3126 39.8915 38.6581 39.1632 38.6581C37.0644 37.6871 36.8612 33.4819 35.6457 31.6136C34.2116 29.6613 32.0798 28.9359 30.9409 31.4696Z" fill="#E38880"/>
<path d="M46.7507 32.9884C45.503 37.6423 43.9196 45.6434 46.8346 47.8532C51.4305 51.3379 56.191 47.8684 56.8854 42.8473C57.2548 40.1729 57.9203 37.0305 57.2274 33.7826C56.1684 31.5552 53.7373 32.6221 53.4752 35.5469C53.2405 38.1734 52.9348 45.4778 50.2303 44.8092C48.2816 44.3277 49.7085 41.0574 49.9738 38.4925C50.0795 37.4736 50.4933 34.9191 50.6538 33.9073C50.8143 32.8956 50.8328 31.9607 49.9997 31.356C48.4623 30.2387 47.05 31.8751 46.7507 32.9884Z" fill="#E38880"/>
<path d="M67.7065 31.9679C64.2624 28.5528 59.7052 30.7114 58.9866 33.845C57.2258 40.0697 62.3444 46.6383 66.9112 39.0748C68.2518 38.027 71.0224 47.1062 63.0114 44.4149C57.5968 41.5989 55.4876 47.0374 60.3505 50.2374C63.3236 51.8977 66.8411 50.966 69.2544 48.9161C73.9616 44.918 69.0817 33.3323 67.7065 31.9679ZM62.9066 37.9007C60.6352 38.7549 61.4225 33.0204 63.1485 33.7306C64.3173 34.2105 64.1923 37.4168 62.9066 37.9007Z" fill="#E38880"/>
<path d="M71.3241 21.8498C66.4539 21.8498 64.7706 26.5717 66.4967 29.291C69.69 34.9271 77.9937 35.9828 75.8296 27.4323C76.0305 25.7519 84.4641 30.2291 76.8806 33.9426C71.0434 35.7477 73.4309 41.0726 79.1512 39.9249C82.438 39.014 84.26 35.8892 84.5052 32.7477C84.9819 26.6213 73.2696 21.8498 71.3241 21.8498ZM71.7169 29.8436C70.6224 30.693 67.9776 26.7957 69.5351 25.9959C70.774 25.6584 73.0655 28.9743 71.7169 29.8436Z" fill="#E38880"/>
<path d="M16.6968 18.7242C15.345 17.3838 14.5521 15.062 15.62 13.2281C16.5783 11.5837 18.4979 11.5757 19.4755 11.0567C20.2216 10.6608 21.0443 9.48989 20.6708 8.01348C20.3063 6.57307 18.9077 5.49976 17.476 5.06387C16.0443 4.62799 14.2916 5.03668 12.9164 5.62532C11.029 6.43311 9.7933 8.27341 9.01253 10.1593C8.52777 11.331 8.17288 12.5699 8.11884 13.8351C7.98172 17.0599 9.79734 20.067 11.9864 22.4544C14.1763 24.8426 16.7928 26.8348 18.8318 29.351C20.1022 30.9185 20.7588 35.4381 18.0825 36.4115C14.4392 37.7367 11.6355 34.8063 10.9007 33.809C8.8988 31.0929 7.6365 29.4949 5.57085 30.6274C-0.060694 33.7154 7.7462 39.9073 8.64393 40.4712C11.3653 42.1819 13.4891 43.3368 16.7113 43.3368C20.3861 43.3368 23.4447 41.2758 24.6989 38.5925C24.8554 38.2574 25.9959 36.3331 25.9959 33.4427C25.9959 30.7226 24.9481 29.0095 23.3584 26.4981C21.6097 23.7349 16.6968 18.7242 16.6968 18.7242Z" fill="#E38880"/>
<path d="M37.383 9.72103C37.1362 9.19717 36.4433 8.56453 35.8707 8.45336C35.298 8.34139 34.756 8.52535 34.3382 8.92924C33.9494 9.30514 33.6687 9.87938 33.6026 10.4136C33.5364 10.9479 33.7122 12.3283 33.7679 12.8634C33.8792 13.9391 33.9324 14.0631 34.1026 15.1316C34.5366 17.8636 34.7181 19.2161 35.2085 21.5587C35.3811 22.3848 35.6868 23.3534 36.065 24.1092C36.3248 24.6274 36.6151 25.0249 37.1144 25.3256C37.6137 25.6264 38.0734 25.7159 38.5041 25.3256C38.8413 25.0201 39.0534 24.2323 39.0534 23.7797C39.0542 18.9833 38.2662 11.5973 37.383 9.72103Z" fill="#E38880"/>
</svg>
