<svg width="196" height="124" viewBox="0 0 196 124" fill="none" xmlns="http://www.w3.org/2000/svg">
<path d="M59.1961 41.6984C67.0839 38.8056 65.315 25.5097 59.7507 22.1614C53.9814 18.6914 41.5992 21.7772 42.2261 31.4153C42.7774 39.913 55.4352 54.4207 59.5489 59.5527C61.9184 62.5081 65.2789 61.91 66.9641 59.4136C69.5288 55.6167 61.262 46.9261 59.1961 41.6984ZM57.6537 32.8635C55.3433 36.7351 49.2966 34.8401 50.3271 30.932C51.6546 25.9026 59.2913 28.792 57.6537 32.8635Z" fill="white"/>
<path d="M91.0441 28.8563C93.7483 26.4728 94.4276 28.8824 97.1909 29.1032C102.248 29.5082 101.862 22.1579 97.8554 18.9278C96.4755 17.8169 93.7155 16.9686 91.9876 17.1146C82.8151 17.8917 82.8315 35.0957 84.4888 43.1883C88.1841 61.2425 104.549 55.9106 104.102 48.1778C102.568 40.6815 97.6914 46.8774 93.5498 45.3441C89.0061 43.6647 88.0298 31.511 91.0441 28.8563Z" fill="white"/>
<path d="M105.587 20.8784C105.123 26.073 105.19 49.5199 115.876 48.183C119.607 47.7153 121.368 45.7821 122.009 42.4095C124.994 53.4419 117.756 57.8681 107.717 57.0058C98.5248 56.2165 99.7588 65.9294 109.458 66.0511C133.028 63.0713 130.202 53.9912 130.863 43.6003C131.096 39.9356 131.024 34.6124 131.024 28.5694C131.024 25.5601 131.812 21.9267 131.065 19.0234C129.029 11.0942 121.251 14.3539 121.251 20.4542C121.251 24.4284 122.341 36.0432 118.38 35.6294C116.586 35.8989 116.132 34.3012 115.777 32.4202C115.045 28.4338 115.377 25.1446 114.666 20.7828C113.806 14.8911 106.162 15.955 105.587 20.8784Z" fill="white"/>
<path d="M149.077 22.5665C143.731 20.0735 138.374 29.6751 140.233 34.9375C142.384 41.0239 147.438 44.52 153.437 43.171C160.495 40.9109 167.57 35.8433 174.588 40.9022C177.753 43.6647 177.061 45.5614 174.244 47.9987C171.493 50.2483 169.401 49.4191 166.766 53.2489C164.843 56.5503 171.71 63.3113 179.342 59.4049C189.578 53.6158 189.781 40.3338 180.354 33.9396C175.868 30.6313 169.264 29.5691 163.369 31.0833C158.836 32.2359 157.92 33.5728 153.168 34.5916C150.219 35.2244 148.588 34.2421 148.052 32.3489C147.684 31.0537 149.394 29.0128 150.07 28.3643C150.871 27.5924 152.833 24.3171 149.077 22.5665Z" fill="white"/>
<path d="M62.9456 68.405C62.117 70.3747 54.7609 89.2685 56.1851 98.2199C58.6333 103.488 62.4927 100.137 63.9482 94.2023C65.6334 88.6235 67.4712 82.1181 69.9571 82.5892C74.6353 83.4759 73.4112 101.125 80.3357 102.437C88.7584 103.449 91.1311 80.0041 92.685 70.9884C92.9394 68.6553 92.6096 67.1567 91.5627 66.0493C90.2959 64.7107 87.0076 65.5191 86.4382 66.9916C84.1213 72.0349 85.1895 75.1677 83.1827 80.357C82.0521 83.2794 81.1545 84.0304 79.6728 84.0304C75.4032 81.9199 74.9897 72.779 72.5169 68.7179C69.5994 64.4743 65.2625 62.8975 62.9456 68.405Z" fill="white"/>
<path d="M95.1086 71.7063C92.5701 81.8225 89.349 99.2143 95.2792 104.018C104.629 111.592 114.314 104.051 115.726 93.1366C116.478 87.3231 117.832 80.4926 116.422 73.4326C114.268 68.591 109.322 70.9101 108.789 77.2677C108.311 82.9769 107.689 98.8545 102.187 97.4011C98.223 96.3545 101.126 89.2459 101.666 83.6706C101.881 81.4557 102.722 75.903 103.049 73.7038C103.375 71.5047 103.413 69.4724 101.718 68.1581C98.5905 65.7294 95.7173 69.2864 95.1086 71.7063Z" fill="white"/>
<path d="M137.74 69.4881C130.734 62.0648 121.463 66.7569 120.001 73.5683C116.419 87.0989 126.832 101.377 136.123 84.9362C138.85 82.6588 144.486 102.394 128.189 96.5441C117.174 90.4229 112.883 102.245 122.776 109.2C128.824 112.809 135.98 110.784 140.889 106.328C150.466 97.6376 140.538 72.4539 137.74 69.4881ZM127.976 82.3842C123.355 84.2408 124.956 71.7759 128.468 73.3197C130.845 74.3628 130.591 81.3324 127.976 82.3842Z" fill="white"/>
<path d="M145.1 47.4945C135.192 47.4945 131.768 57.7585 135.279 63.6693C141.775 75.9204 158.668 78.2152 154.266 59.6291C154.674 55.9766 171.832 65.7086 156.404 73.7804C144.529 77.7041 149.386 89.2789 161.023 86.7842C167.71 84.8041 171.416 78.0118 171.915 71.1831C172.885 57.8663 149.058 47.4945 145.1 47.4945ZM145.899 64.8706C143.672 66.7169 138.292 58.2453 141.46 56.5068C143.981 55.7732 148.642 62.9809 145.899 64.8706Z" fill="white"/>
<path d="M33.9674 40.7005C31.2173 37.7868 29.6043 32.74 31.7768 28.7537C33.7262 25.1794 37.6315 25.162 39.6203 24.0337C41.1381 23.1732 42.8118 20.628 42.0521 17.4188C41.3104 14.2878 38.4651 11.9547 35.5525 11.0073C32.6399 10.0598 29.0743 10.9482 26.2766 12.2277C22.4369 13.9835 19.9231 17.9838 18.3347 22.0831C17.3485 24.63 16.6265 27.3229 16.5166 30.0732C16.2376 37.0828 19.9313 43.6194 24.3846 48.8088C28.8396 53.9999 34.1627 58.3305 38.3108 63.7997C40.8952 67.2072 42.2309 77.0313 36.7865 79.1471C29.3746 82.0277 23.6708 75.6579 22.176 73.49C18.1033 67.5862 15.5353 64.1127 11.333 66.5744C-0.123662 73.2866 15.7585 86.746 17.5848 87.9716C23.1212 91.6902 27.4416 94.2006 33.9969 94.2006C41.4728 94.2006 47.6951 89.7205 50.2467 83.8879C50.565 83.1595 52.8852 78.9767 52.8852 72.6938C52.8852 66.7812 50.7537 63.0574 47.5195 57.5986C43.9621 51.5921 33.9674 40.7005 33.9674 40.7005Z" fill="white"/>
<path d="M76.0513 21.1305C75.5492 19.9918 74.1397 18.6166 72.9747 18.375C71.8097 18.1316 70.707 18.5314 69.857 19.4094C69.0661 20.2265 68.4951 21.4747 68.3605 22.636C68.226 23.7973 68.5837 26.7979 68.6969 27.961C68.9233 30.2992 69.0316 30.5687 69.3779 32.8913C70.2607 38.83 70.6299 41.7697 71.6275 46.8617C71.9787 48.6576 72.6006 50.7629 73.3701 52.4058C73.8985 53.5323 74.4892 54.3963 75.5049 55.05C76.5206 55.7037 77.456 55.8984 78.3322 55.05C79.0181 54.3859 79.4496 52.6735 79.4496 51.6895C79.4513 41.2638 77.8481 25.209 76.0513 21.1305Z" fill="white"/>
</svg>
