<svg width="32" height="32" viewBox="0 0 32 32" fill="none" xmlns="http://www.w3.org/2000/svg">
<g clip-path="url(#clip0_858_1026)">
<path d="M25.2703 8H20.1854C19.9493 6.60197 19.2257 5.33275 18.1429 4.41747C17.0601 3.50218 15.6881 3 14.2703 3C12.8524 3 11.4805 3.50218 10.3977 4.41747C9.31485 5.33275 8.59124 6.60197 8.35516 8H3.27026C2.74002 8.0006 2.23166 8.21151 1.85672 8.58645C1.48178 8.9614 1.27087 9.46975 1.27026 10V26C1.27087 26.5302 1.48178 27.0386 1.85672 27.4135C2.23166 27.7885 2.74002 27.9994 3.27026 28H25.2703C25.8005 27.9994 26.3089 27.7885 26.6838 27.4135C27.0587 27.0386 27.2697 26.5302 27.2703 26V10C27.2697 9.46975 27.0587 8.9614 26.6838 8.58645C26.3089 8.21151 25.8005 8.0006 25.2703 8V8ZM10.2693 13C10.2693 13.2652 10.1639 13.5196 9.97639 13.7071C9.78886 13.8946 9.5345 14 9.26929 14C9.00407 14 8.74972 13.8946 8.56218 13.7071C8.37464 13.5196 8.26929 13.2652 8.26929 13V11C8.26929 10.7348 8.37464 10.4804 8.56218 10.2929C8.74972 10.1054 9.00407 10 9.26929 10C9.5345 10 9.78886 10.1054 9.97639 10.2929C10.1639 10.4804 10.2693 10.7348 10.2693 11V13ZM10.3969 8C10.6187 7.14135 11.1195 6.38074 11.8206 5.8377C12.5217 5.29467 13.3834 5 14.2703 5C15.1571 5 16.0188 5.29467 16.7199 5.8377C17.4211 6.38074 17.9219 7.14135 18.1437 8H10.3969ZM20.2693 13C20.2693 13.2652 20.1639 13.5196 19.9764 13.7071C19.7889 13.8946 19.5345 14 19.2693 14C19.0041 14 18.7497 13.8946 18.5622 13.7071C18.3746 13.5196 18.2693 13.2652 18.2693 13V11C18.2693 10.7348 18.3746 10.4804 18.5622 10.2929C18.7497 10.1054 19.0041 10 19.2693 10C19.5345 10 19.7889 10.1054 19.9764 10.2929C20.1639 10.4804 20.2693 10.7348 20.2693 11V13Z" fill="#E38880"/>
</g>
<defs>
<clipPath id="clip0_858_1026">
<rect width="32" height="32" fill="white"/>
</clipPath>
</defs>
</svg>
