<svg width="30" height="32" viewBox="0 0 30 32" fill="none" xmlns="http://www.w3.org/2000/svg">
<path d="M16.2941 16L24.0536 7.70712C24.2288 7.51954 24.3273 7.26526 24.3272 7.00015C24.3271 6.73505 24.2285 6.48083 24.0531 6.29338C23.8777 6.10592 23.6399 6.00057 23.3918 6.00049C23.1438 6.00041 22.9058 6.10559 22.7303 6.29293L14.9709 14.5858L7.21145 6.29293C7.03594 6.10559 6.79801 6.00041 6.54996 6.00049C6.30191 6.00057 6.06404 6.10592 5.88865 6.29338C5.71325 6.48083 5.61468 6.73505 5.6146 7.00015C5.61452 7.26526 5.71294 7.51954 5.88823 7.70712L13.6477 16L5.88823 24.2929C5.80126 24.3858 5.73225 24.496 5.68516 24.6174C5.63807 24.7387 5.61381 24.8688 5.61377 25.0002C5.61373 25.1315 5.63791 25.2616 5.68494 25.383C5.73196 25.5044 5.8009 25.6147 5.88782 25.7076C5.97473 25.8005 6.07793 25.8741 6.1915 25.9244C6.30507 25.9746 6.4268 26.0005 6.54972 26.0004C6.67264 26.0004 6.79435 25.9745 6.90789 25.9241C7.02143 25.8738 7.12458 25.8001 7.21145 25.7071L14.9709 17.4142L22.7303 25.7071C22.9058 25.8945 23.1438 25.9996 23.3918 25.9996C23.6399 25.9995 23.8777 25.8941 24.0531 25.7067C24.2285 25.5192 24.3271 25.265 24.3272 24.9999C24.3273 24.7348 24.2288 24.4805 24.0536 24.2929L16.2941 16Z" fill="#E6977E"/>
</svg>
