<svg width="38" height="33" viewBox="0 0 38 33" fill="none" xmlns="http://www.w3.org/2000/svg">
<path fill-rule="evenodd" clip-rule="evenodd" d="M7.73143 3.33235C4.79926 4.66946 2.65116 7.8498 2.65116 11.6423C2.65116 15.5168 4.24048 18.5031 6.51884 21.0626C8.39662 23.172 10.6698 24.9202 12.8866 26.6252C13.4132 27.0303 13.9365 27.4328 14.4507 27.8371C15.3804 28.5683 16.2097 29.21 17.0092 29.676C17.8089 30.1423 18.4528 30.3552 19 30.3552C19.5472 30.3552 20.1911 30.1423 20.9908 29.676C21.7903 29.21 22.6195 28.5683 23.5494 27.8371C24.0635 27.4328 24.5869 27.0303 25.1134 26.6252C27.3303 24.9202 29.6034 23.172 31.4811 21.0626C33.7596 18.5031 35.3488 15.5168 35.3488 11.6423C35.3488 7.8498 33.2007 4.66946 30.2685 3.33235C27.6645 2.14491 24.2426 2.3304 20.8956 5.25086L23.472 7.82029C23.9898 8.33663 23.99 9.17393 23.4723 9.69047C22.9548 10.207 22.1155 10.2071 21.5978 9.6908L18.0629 6.16562L18.0449 6.14743C14.4076 2.37737 10.58 2.03337 7.73143 3.33235ZM19 3.39341C14.9136 -0.253954 10.3377 -0.764178 6.62925 0.926912C2.71251 2.71299 0 6.86028 0 11.6423C0 16.3421 1.96274 19.9276 4.53653 22.8188C6.59763 25.1341 9.12039 27.072 11.3484 28.7834C11.8535 29.1713 12.3434 29.5478 12.8094 29.9142C13.7147 30.6262 14.6866 31.3854 15.6716 31.9595C16.6562 32.5335 17.7798 33 19 33C20.2202 33 21.3438 32.5335 22.3284 31.9595C23.3134 31.3854 24.2852 30.6262 25.1906 29.9142C25.6565 29.5478 26.1465 29.1713 26.6516 28.7834C28.8796 27.072 31.4023 25.1341 33.4635 22.8188C36.0373 19.9276 38 16.3421 38 11.6423C38 6.86028 35.2875 2.71299 31.3707 0.926912C27.6622 -0.764178 23.0865 -0.253954 19 3.39341Z" fill="#1C274C"/>
</svg>
