<svg width="21" height="21" viewBox="0 0 21 21" fill="none" xmlns="http://www.w3.org/2000/svg">
<g clip-path="url(#clip0_1_75)">
<path fill-rule="evenodd" clip-rule="evenodd" d="M10.5 19.6875C5.42588 19.6875 1.3125 15.5728 1.3125 10.5C1.3125 5.42719 5.42588 1.3125 10.5 1.3125C15.5741 1.3125 19.6875 5.42719 19.6875 10.5C19.6875 15.5728 15.5741 19.6875 10.5 19.6875ZM10.5 0C4.70072 0 0 4.69875 0 10.5C0 16.3013 4.70072 21 10.5 21C16.2993 21 21 16.3013 21 10.5C21 4.69875 16.2993 0 10.5 0ZM14.4375 9.84375H11.1562V6.5625C11.1562 6.20156 10.8629 5.90625 10.5 5.90625C10.1371 5.90625 9.84375 6.20156 9.84375 6.5625V9.84375H6.5625C6.19959 9.84375 5.90625 10.1391 5.90625 10.5C5.90625 10.8609 6.19959 11.1562 6.5625 11.1562H9.84375V14.4375C9.84375 14.7984 10.1371 15.0938 10.5 15.0938C10.8629 15.0938 11.1562 14.7984 11.1562 14.4375V11.1562H14.4375C14.8004 11.1562 15.0938 10.8609 15.0938 10.5C15.0938 10.1391 14.8004 9.84375 14.4375 9.84375Z" fill="black"/>
</g>
<defs>
<clipPath id="clip0_1_75">
<rect width="21" height="21" fill="white"/>
</clipPath>
</defs>
</svg>
