<svg width="52" height="52" viewBox="0 0 52 52" fill="none" xmlns="http://www.w3.org/2000/svg">
<g id="icons8-send-90 1">
<g id="Group">
<path id="Vector" opacity="0.946" fill-rule="evenodd" clip-rule="evenodd" d="M7.8001 4.91125C9.35276 4.81644 10.8935 4.91274 12.4223 5.20014C24.1705 11.4594 35.9186 17.7187 47.6668 23.9779C48.4371 25.1335 48.4371 26.289 47.6668 27.4446C35.9186 33.7038 24.1705 39.9631 12.4223 46.2224C10.4044 46.8023 8.57479 46.5134 6.93343 45.3557C6.54823 40.3483 6.54823 35.3409 6.93343 30.3335C7.79473 29.4647 8.85397 28.9832 10.1112 28.889C15.9291 28.0158 21.7069 26.9565 27.4445 25.7113C21.7069 24.466 15.9291 23.4067 10.1112 22.5335C8.85397 22.4394 7.79473 21.9578 6.93343 21.089C6.54823 16.0816 6.54823 11.0742 6.93343 6.06681C7.34782 5.75238 7.63671 5.36719 7.8001 4.91125Z" fill="white"/>
</g>
</g>
</svg>
