<svg width="32" height="32" viewBox="0 0 32 32" fill="none" xmlns="http://www.w3.org/2000/svg">
<path d="M28.9921 26.4983C27.1261 23.2845 24.1379 20.8741 20.6021 19.7305C22.296 18.7226 23.6122 17.1865 24.3485 15.3581C25.0848 13.5297 25.2005 11.5101 24.6778 9.60959C24.1552 7.70906 23.0231 6.03267 21.4554 4.83789C19.8877 3.64311 17.9711 2.99603 16 2.99603C14.0289 2.99603 12.1123 3.64311 10.5446 4.83789C8.97693 6.03267 7.84481 7.70906 7.32215 9.60959C6.7995 11.5101 6.91521 13.5297 7.65153 15.3581C8.38784 17.1865 9.70403 18.7226 11.3979 19.7305C7.8622 20.874 4.87405 23.2844 3.00811 26.498C2.92015 26.65 2.87378 26.8225 2.87366 26.9981C2.87353 27.1738 2.91966 27.3463 3.00739 27.4984C3.09513 27.6506 3.22138 27.7769 3.37345 27.8647C3.52551 27.9526 3.69803 27.9988 3.87365 27.9988L28.1265 27.9991C28.3021 27.9991 28.4747 27.9529 28.6267 27.865C28.7788 27.7772 28.9051 27.6508 28.9928 27.4987C29.0805 27.3466 29.1267 27.174 29.1265 26.9984C29.1264 26.8228 29.08 26.6503 28.9921 26.4983L28.9921 26.4983Z" fill="#E38880"/>
</svg>
